G75*
%MOIN*%
%OFA0B0*%
%FSLAX25Y25*%
%IPPOS*%
%LPD*%
%AMOC8*
5,1,8,0,0,1.08239X$1,22.5*
%
%ADD10R,0.05150X0.05150*%
%ADD11C,0.05150*%
%ADD12C,0.05200*%
%ADD13C,0.06000*%
%ADD14OC8,0.05200*%
%ADD15C,0.10000*%
%ADD16OC8,0.10000*%
%ADD17OC8,0.06000*%
%ADD18C,0.08850*%
%ADD19C,0.07800*%
%ADD20OC8,0.10050*%
%ADD21C,0.17000*%
%ADD22C,0.05543*%
%ADD23C,0.01600*%
%ADD24C,0.02400*%
%ADD25C,0.05000*%
%ADD26C,0.04750*%
%ADD27C,0.07000*%
%ADD28C,0.07000*%
%ADD29C,0.06600*%
%ADD30C,0.03200*%
D10*
X0056800Y0062874D03*
D11*
X0066800Y0062874D03*
X0076800Y0062874D03*
X0086800Y0062874D03*
X0096800Y0062874D03*
X0106800Y0062874D03*
X0116800Y0062874D03*
X0126800Y0062874D03*
X0136800Y0062874D03*
X0146800Y0062874D03*
X0156800Y0062874D03*
X0166800Y0062874D03*
X0176800Y0062874D03*
X0186800Y0062874D03*
X0196800Y0062874D03*
X0196800Y0122874D03*
X0186800Y0122874D03*
X0176800Y0122874D03*
X0166800Y0122874D03*
X0156800Y0122874D03*
X0146800Y0122874D03*
X0136800Y0122874D03*
X0126800Y0122874D03*
X0116800Y0122874D03*
X0106800Y0122874D03*
X0096800Y0122874D03*
X0086800Y0122874D03*
X0076800Y0122874D03*
X0066800Y0122874D03*
X0056800Y0122874D03*
D12*
X0144200Y0077874D02*
X0149400Y0077874D01*
X0184200Y0077874D02*
X0189400Y0077874D01*
X0219200Y0061811D02*
X0224400Y0061811D01*
X0259200Y0061811D02*
X0264400Y0061811D01*
X0327863Y0059411D02*
X0327863Y0054211D01*
X0327863Y0094211D02*
X0327863Y0099411D01*
D13*
X0306800Y0109874D02*
X0306800Y0115874D01*
X0296800Y0115874D02*
X0296800Y0109874D01*
X0286800Y0109874D02*
X0286800Y0115874D01*
X0286800Y0088374D02*
X0286800Y0082374D01*
X0296800Y0082374D02*
X0296800Y0088374D01*
X0306800Y0088374D02*
X0306800Y0082374D01*
D14*
X0186800Y0092874D03*
X0186800Y0107874D03*
X0146800Y0107874D03*
X0116800Y0107874D03*
X0116800Y0092874D03*
X0146800Y0092874D03*
X0116363Y0078748D03*
X0076363Y0078748D03*
X0076800Y0092874D03*
X0076800Y0107874D03*
D15*
X0256800Y0097874D03*
D16*
X0236800Y0097874D03*
D17*
X0065700Y0025474D03*
X0047900Y0025474D03*
D18*
X0043000Y0035274D03*
X0070600Y0035274D03*
D19*
X0196624Y0035022D02*
X0196624Y0027222D01*
X0216424Y0027222D02*
X0216424Y0035022D01*
X0239931Y0035022D02*
X0239931Y0027222D01*
X0259731Y0027222D02*
X0259731Y0035022D01*
D20*
X0340383Y0052244D03*
X0340383Y0064055D03*
X0340383Y0075866D03*
X0340383Y0087677D03*
D21*
X0293139Y0058937D03*
X0311643Y0047126D03*
X0293139Y0035315D03*
D22*
X0161406Y0044370D03*
X0151406Y0044370D03*
X0141406Y0044370D03*
X0114162Y0044370D03*
X0104162Y0044370D03*
X0094162Y0044370D03*
D23*
X0006600Y0017674D02*
X0006600Y0126775D01*
X0039432Y0126775D01*
X0038500Y0124525D01*
X0038500Y0121223D01*
X0039764Y0118172D01*
X0042098Y0115838D01*
X0045149Y0114574D01*
X0048451Y0114574D01*
X0051502Y0115838D01*
X0053836Y0118172D01*
X0054349Y0119411D01*
X0054431Y0119329D01*
X0055968Y0118692D01*
X0057632Y0118692D01*
X0059169Y0119329D01*
X0060345Y0120505D01*
X0060982Y0122042D01*
X0060982Y0123706D01*
X0060345Y0125243D01*
X0059169Y0126419D01*
X0058310Y0126775D01*
X0065290Y0126775D01*
X0064431Y0126419D01*
X0063255Y0125243D01*
X0062618Y0123706D01*
X0062618Y0122042D01*
X0063255Y0120505D01*
X0064431Y0119329D01*
X0065968Y0118692D01*
X0067632Y0118692D01*
X0069169Y0119329D01*
X0070345Y0120505D01*
X0070982Y0122042D01*
X0070982Y0123706D01*
X0070345Y0125243D01*
X0069169Y0126419D01*
X0068310Y0126775D01*
X0075290Y0126775D01*
X0074431Y0126419D01*
X0073255Y0125243D01*
X0072618Y0123706D01*
X0072618Y0122042D01*
X0073255Y0120505D01*
X0074431Y0119329D01*
X0075968Y0118692D01*
X0077632Y0118692D01*
X0079169Y0119329D01*
X0080345Y0120505D01*
X0080982Y0122042D01*
X0080982Y0123706D01*
X0080345Y0125243D01*
X0079169Y0126419D01*
X0078310Y0126775D01*
X0085290Y0126775D01*
X0084431Y0126419D01*
X0083255Y0125243D01*
X0082618Y0123706D01*
X0082618Y0122042D01*
X0083255Y0120505D01*
X0084431Y0119329D01*
X0085968Y0118692D01*
X0087632Y0118692D01*
X0089169Y0119329D01*
X0090345Y0120505D01*
X0090982Y0122042D01*
X0090982Y0123706D01*
X0090345Y0125243D01*
X0089169Y0126419D01*
X0088310Y0126775D01*
X0095290Y0126775D01*
X0094431Y0126419D01*
X0093255Y0125243D01*
X0092618Y0123706D01*
X0092618Y0122042D01*
X0093255Y0120505D01*
X0094431Y0119329D01*
X0095968Y0118692D01*
X0097632Y0118692D01*
X0099169Y0119329D01*
X0100345Y0120505D01*
X0100982Y0122042D01*
X0100982Y0123706D01*
X0100345Y0125243D01*
X0099169Y0126419D01*
X0098310Y0126775D01*
X0105290Y0126775D01*
X0104431Y0126419D01*
X0103255Y0125243D01*
X0102618Y0123706D01*
X0102618Y0122042D01*
X0103255Y0120505D01*
X0104431Y0119329D01*
X0105968Y0118692D01*
X0107632Y0118692D01*
X0109169Y0119329D01*
X0110345Y0120505D01*
X0110982Y0122042D01*
X0110982Y0123706D01*
X0110345Y0125243D01*
X0109169Y0126419D01*
X0108310Y0126775D01*
X0115290Y0126775D01*
X0114431Y0126419D01*
X0113255Y0125243D01*
X0112618Y0123706D01*
X0112618Y0122042D01*
X0113255Y0120505D01*
X0114431Y0119329D01*
X0115968Y0118692D01*
X0117632Y0118692D01*
X0119169Y0119329D01*
X0120345Y0120505D01*
X0120982Y0122042D01*
X0120982Y0123706D01*
X0120345Y0125243D01*
X0119169Y0126419D01*
X0118310Y0126775D01*
X0125290Y0126775D01*
X0124431Y0126419D01*
X0123255Y0125243D01*
X0122618Y0123706D01*
X0122618Y0122042D01*
X0123255Y0120505D01*
X0124431Y0119329D01*
X0125968Y0118692D01*
X0127632Y0118692D01*
X0129169Y0119329D01*
X0130345Y0120505D01*
X0130982Y0122042D01*
X0130982Y0123706D01*
X0130345Y0125243D01*
X0129169Y0126419D01*
X0128310Y0126775D01*
X0135290Y0126775D01*
X0134431Y0126419D01*
X0133255Y0125243D01*
X0132618Y0123706D01*
X0132618Y0122042D01*
X0133255Y0120505D01*
X0134431Y0119329D01*
X0135968Y0118692D01*
X0137632Y0118692D01*
X0139169Y0119329D01*
X0140345Y0120505D01*
X0140982Y0122042D01*
X0140982Y0123706D01*
X0140345Y0125243D01*
X0139169Y0126419D01*
X0138310Y0126775D01*
X0145290Y0126775D01*
X0144431Y0126419D01*
X0143255Y0125243D01*
X0142618Y0123706D01*
X0142618Y0122042D01*
X0143255Y0120505D01*
X0144431Y0119329D01*
X0145968Y0118692D01*
X0147632Y0118692D01*
X0149169Y0119329D01*
X0150345Y0120505D01*
X0150982Y0122042D01*
X0150982Y0123706D01*
X0150345Y0125243D01*
X0149169Y0126419D01*
X0148310Y0126775D01*
X0155290Y0126775D01*
X0154431Y0126419D01*
X0153255Y0125243D01*
X0152618Y0123706D01*
X0152618Y0122042D01*
X0153255Y0120505D01*
X0154431Y0119329D01*
X0155968Y0118692D01*
X0157632Y0118692D01*
X0159169Y0119329D01*
X0160345Y0120505D01*
X0160982Y0122042D01*
X0160982Y0123706D01*
X0160345Y0125243D01*
X0159169Y0126419D01*
X0158310Y0126775D01*
X0164819Y0126775D01*
X0164507Y0126616D01*
X0163950Y0126211D01*
X0163463Y0125724D01*
X0163058Y0125167D01*
X0162746Y0124553D01*
X0162533Y0123898D01*
X0162425Y0123218D01*
X0162425Y0122874D01*
X0162425Y0122530D01*
X0162533Y0121850D01*
X0162746Y0121195D01*
X0163058Y0120581D01*
X0163463Y0120024D01*
X0163950Y0119537D01*
X0164507Y0119132D01*
X0165121Y0118820D01*
X0165776Y0118607D01*
X0165939Y0118581D01*
X0141162Y0118581D01*
X0139983Y0118093D01*
X0139081Y0117191D01*
X0132972Y0111081D01*
X0119543Y0111081D01*
X0118543Y0112081D01*
X0115057Y0112081D01*
X0112593Y0109617D01*
X0112593Y0106131D01*
X0115057Y0103667D01*
X0118543Y0103667D01*
X0119543Y0104667D01*
X0134938Y0104667D01*
X0136117Y0105155D01*
X0143128Y0112167D01*
X0269938Y0112167D01*
X0271117Y0112655D01*
X0278128Y0119667D01*
X0283854Y0119667D01*
X0283673Y0119535D01*
X0283139Y0119001D01*
X0282695Y0118390D01*
X0282352Y0117717D01*
X0282118Y0116998D01*
X0282000Y0116252D01*
X0282000Y0113074D01*
X0286600Y0113074D01*
X0286600Y0112674D01*
X0287000Y0112674D01*
X0287000Y0113074D01*
X0291600Y0113074D01*
X0291600Y0116252D01*
X0291482Y0116998D01*
X0291248Y0117717D01*
X0290905Y0118390D01*
X0290461Y0119001D01*
X0289927Y0119535D01*
X0289746Y0119667D01*
X0294078Y0119667D01*
X0292894Y0118484D01*
X0292193Y0116790D01*
X0292193Y0108958D01*
X0292894Y0107264D01*
X0294190Y0105968D01*
X0295884Y0105267D01*
X0297716Y0105267D01*
X0299410Y0105968D01*
X0300706Y0107264D01*
X0301407Y0108958D01*
X0301407Y0116790D01*
X0300706Y0118484D01*
X0299522Y0119667D01*
X0302972Y0119667D01*
X0303525Y0119114D01*
X0302894Y0118484D01*
X0302193Y0116790D01*
X0302193Y0108958D01*
X0302894Y0107264D01*
X0304190Y0105968D01*
X0305884Y0105267D01*
X0307716Y0105267D01*
X0309410Y0105968D01*
X0310706Y0107264D01*
X0311407Y0108958D01*
X0311407Y0116790D01*
X0310706Y0118484D01*
X0310007Y0119182D01*
X0310007Y0121012D01*
X0309519Y0122191D01*
X0308617Y0123093D01*
X0306117Y0125593D01*
X0304938Y0126081D01*
X0276162Y0126081D01*
X0274983Y0125593D01*
X0274081Y0124691D01*
X0267972Y0118581D01*
X0214006Y0118581D01*
X0215100Y0121223D01*
X0215100Y0124525D01*
X0214168Y0126775D01*
X0351921Y0126775D01*
X0351921Y0017674D01*
X0006600Y0017674D01*
X0006600Y0019268D02*
X0351921Y0019268D01*
X0351921Y0020867D02*
X0006600Y0020867D01*
X0006600Y0022465D02*
X0017763Y0022465D01*
X0017516Y0022531D02*
X0020339Y0021775D01*
X0023261Y0021775D01*
X0026084Y0022531D01*
X0028615Y0023992D01*
X0030682Y0026059D01*
X0032143Y0028590D01*
X0032899Y0031413D01*
X0032899Y0034335D01*
X0032143Y0037158D01*
X0030682Y0039689D01*
X0028615Y0041756D01*
X0026084Y0043217D01*
X0023261Y0043973D01*
X0020339Y0043973D01*
X0017516Y0043217D01*
X0014985Y0041756D01*
X0012918Y0039689D01*
X0011457Y0037158D01*
X0010701Y0034335D01*
X0010701Y0031413D01*
X0011457Y0028590D01*
X0012918Y0026059D01*
X0014985Y0023992D01*
X0017516Y0022531D01*
X0014914Y0024064D02*
X0006600Y0024064D01*
X0006600Y0025662D02*
X0013315Y0025662D01*
X0012225Y0027261D02*
X0006600Y0027261D01*
X0006600Y0028859D02*
X0011385Y0028859D01*
X0010957Y0030458D02*
X0006600Y0030458D01*
X0006600Y0032056D02*
X0010701Y0032056D01*
X0010701Y0033655D02*
X0006600Y0033655D01*
X0006600Y0035253D02*
X0010947Y0035253D01*
X0011375Y0036852D02*
X0006600Y0036852D01*
X0006600Y0038450D02*
X0012203Y0038450D01*
X0013278Y0040049D02*
X0006600Y0040049D01*
X0006600Y0041647D02*
X0014877Y0041647D01*
X0017624Y0043246D02*
X0006600Y0043246D01*
X0006600Y0044844D02*
X0089783Y0044844D01*
X0089783Y0045241D02*
X0089783Y0043499D01*
X0090450Y0041890D01*
X0091682Y0040658D01*
X0093291Y0039991D01*
X0095033Y0039991D01*
X0096643Y0040658D01*
X0097874Y0041890D01*
X0098541Y0043499D01*
X0098541Y0045241D01*
X0097874Y0046850D01*
X0096643Y0048082D01*
X0095033Y0048749D01*
X0093291Y0048749D01*
X0091682Y0048082D01*
X0090450Y0046850D01*
X0089783Y0045241D01*
X0090281Y0046443D02*
X0006600Y0046443D01*
X0006600Y0048041D02*
X0091641Y0048041D01*
X0096683Y0048041D02*
X0101355Y0048041D01*
X0101355Y0047755D02*
X0100450Y0046850D01*
X0099783Y0045241D01*
X0099783Y0043499D01*
X0100450Y0041890D01*
X0101682Y0040658D01*
X0103291Y0039991D01*
X0105033Y0039991D01*
X0106643Y0040658D01*
X0107874Y0041890D01*
X0108541Y0043499D01*
X0108541Y0045241D01*
X0107874Y0046850D01*
X0106969Y0047755D01*
X0106969Y0056070D01*
X0106542Y0057102D01*
X0100982Y0062662D01*
X0100982Y0063706D01*
X0100345Y0065243D01*
X0099169Y0066419D01*
X0097632Y0067056D01*
X0095968Y0067056D01*
X0094431Y0066419D01*
X0093255Y0065243D01*
X0092618Y0063706D01*
X0092618Y0062042D01*
X0093255Y0060505D01*
X0094431Y0059329D01*
X0095968Y0058692D01*
X0097012Y0058692D01*
X0101355Y0054349D01*
X0101355Y0047755D01*
X0100281Y0046443D02*
X0098043Y0046443D01*
X0098541Y0044844D02*
X0099783Y0044844D01*
X0099888Y0043246D02*
X0098436Y0043246D01*
X0097632Y0041647D02*
X0100693Y0041647D01*
X0103153Y0040049D02*
X0095172Y0040049D01*
X0093153Y0040049D02*
X0074356Y0040049D01*
X0074017Y0040388D02*
X0071800Y0041306D01*
X0069400Y0041306D01*
X0067183Y0040388D01*
X0065486Y0038691D01*
X0064568Y0036474D01*
X0064568Y0034074D01*
X0065486Y0031857D01*
X0067183Y0030160D01*
X0067374Y0030081D01*
X0063792Y0030081D01*
X0061093Y0027382D01*
X0061093Y0023566D01*
X0063792Y0020867D01*
X0067608Y0020867D01*
X0070307Y0023566D01*
X0070307Y0027382D01*
X0067774Y0029916D01*
X0069400Y0029242D01*
X0071800Y0029242D01*
X0074017Y0030160D01*
X0075714Y0031857D01*
X0076632Y0034074D01*
X0076632Y0036474D01*
X0075714Y0038691D01*
X0074017Y0040388D01*
X0075813Y0038450D02*
X0192264Y0038450D01*
X0191956Y0038142D02*
X0193505Y0039691D01*
X0195529Y0040529D01*
X0197720Y0040529D01*
X0199744Y0039691D01*
X0201293Y0038142D01*
X0202131Y0036117D01*
X0202131Y0026127D01*
X0201293Y0024103D01*
X0199744Y0022553D01*
X0197720Y0021715D01*
X0195529Y0021715D01*
X0193505Y0022553D01*
X0191956Y0024103D01*
X0191117Y0026127D01*
X0191117Y0036117D01*
X0191956Y0038142D01*
X0191421Y0036852D02*
X0076476Y0036852D01*
X0076632Y0035253D02*
X0191117Y0035253D01*
X0191117Y0033655D02*
X0076458Y0033655D01*
X0075796Y0032056D02*
X0191117Y0032056D01*
X0191117Y0030458D02*
X0074314Y0030458D01*
X0068830Y0028859D02*
X0191117Y0028859D01*
X0191117Y0027261D02*
X0070307Y0027261D01*
X0070307Y0025662D02*
X0191310Y0025662D01*
X0191995Y0024064D02*
X0070307Y0024064D01*
X0069206Y0022465D02*
X0193718Y0022465D01*
X0199531Y0022465D02*
X0213518Y0022465D01*
X0213305Y0022553D02*
X0215329Y0021715D01*
X0217520Y0021715D01*
X0219544Y0022553D01*
X0221093Y0024103D01*
X0221931Y0026127D01*
X0221931Y0030149D01*
X0225749Y0035742D01*
X0226130Y0036123D01*
X0226316Y0036573D01*
X0226591Y0036976D01*
X0226701Y0037503D01*
X0226907Y0038000D01*
X0226907Y0038487D01*
X0227007Y0038964D01*
X0226907Y0039493D01*
X0226907Y0058368D01*
X0227967Y0059428D01*
X0228607Y0060974D01*
X0228607Y0061396D01*
X0237193Y0069981D01*
X0237393Y0070464D01*
X0237888Y0070959D01*
X0260144Y0070959D01*
X0260627Y0070759D01*
X0262658Y0070759D01*
X0264535Y0071537D01*
X0265972Y0072973D01*
X0266750Y0074850D01*
X0266750Y0076882D01*
X0265972Y0078759D01*
X0264535Y0080196D01*
X0262658Y0080973D01*
X0260627Y0080973D01*
X0260144Y0080773D01*
X0234879Y0080773D01*
X0233075Y0080026D01*
X0230453Y0077404D01*
X0229970Y0077204D01*
X0218785Y0066018D01*
X0218363Y0066018D01*
X0216817Y0065378D01*
X0215633Y0064194D01*
X0215100Y0062906D01*
X0215100Y0064525D01*
X0213836Y0067576D01*
X0211502Y0069910D01*
X0208451Y0071174D01*
X0205149Y0071174D01*
X0202098Y0069910D01*
X0199764Y0067576D01*
X0199251Y0066337D01*
X0199169Y0066419D01*
X0197632Y0067056D01*
X0195968Y0067056D01*
X0194431Y0066419D01*
X0193255Y0065243D01*
X0192618Y0063706D01*
X0192618Y0062042D01*
X0193255Y0060505D01*
X0194431Y0059329D01*
X0195968Y0058692D01*
X0197632Y0058692D01*
X0199169Y0059329D01*
X0199251Y0059411D01*
X0199764Y0058172D01*
X0202098Y0055838D01*
X0205149Y0054574D01*
X0208451Y0054574D01*
X0211502Y0055838D01*
X0213836Y0058172D01*
X0214995Y0060969D01*
X0215633Y0059428D01*
X0216693Y0058368D01*
X0216693Y0040593D01*
X0216650Y0040529D01*
X0215329Y0040529D01*
X0213305Y0039691D01*
X0211756Y0038142D01*
X0210917Y0036117D01*
X0210917Y0026127D01*
X0211756Y0024103D01*
X0213305Y0022553D01*
X0211795Y0024064D02*
X0201254Y0024064D01*
X0201939Y0025662D02*
X0211110Y0025662D01*
X0210917Y0027261D02*
X0202131Y0027261D01*
X0202131Y0028859D02*
X0210917Y0028859D01*
X0210917Y0030458D02*
X0202131Y0030458D01*
X0202131Y0032056D02*
X0210917Y0032056D01*
X0210917Y0033655D02*
X0202131Y0033655D01*
X0202131Y0035253D02*
X0210917Y0035253D01*
X0211221Y0036852D02*
X0201827Y0036852D01*
X0200984Y0038450D02*
X0212064Y0038450D01*
X0214169Y0040049D02*
X0198880Y0040049D01*
X0194369Y0040049D02*
X0162901Y0040049D01*
X0163161Y0040133D02*
X0163802Y0040460D01*
X0164385Y0040883D01*
X0164893Y0041392D01*
X0165316Y0041974D01*
X0165643Y0042615D01*
X0165865Y0043300D01*
X0165978Y0044010D01*
X0165978Y0044284D01*
X0161492Y0044284D01*
X0161492Y0039798D01*
X0161766Y0039798D01*
X0162477Y0039911D01*
X0163161Y0040133D01*
X0161492Y0040049D02*
X0161320Y0040049D01*
X0161320Y0039798D02*
X0161320Y0044284D01*
X0156835Y0044284D01*
X0156835Y0044010D01*
X0156947Y0043300D01*
X0157170Y0042615D01*
X0157496Y0041974D01*
X0157919Y0041392D01*
X0158428Y0040883D01*
X0159010Y0040460D01*
X0159651Y0040133D01*
X0160336Y0039911D01*
X0161046Y0039798D01*
X0161320Y0039798D01*
X0159912Y0040049D02*
X0152416Y0040049D01*
X0152277Y0039991D02*
X0153887Y0040658D01*
X0155118Y0041890D01*
X0155785Y0043499D01*
X0155785Y0045241D01*
X0155118Y0046850D01*
X0153887Y0048082D01*
X0152277Y0048749D01*
X0150535Y0048749D01*
X0148926Y0048082D01*
X0147694Y0046850D01*
X0147028Y0045241D01*
X0147028Y0043499D01*
X0147694Y0041890D01*
X0148926Y0040658D01*
X0150535Y0039991D01*
X0152277Y0039991D01*
X0150397Y0040049D02*
X0142416Y0040049D01*
X0142277Y0039991D02*
X0143887Y0040658D01*
X0145118Y0041890D01*
X0145785Y0043499D01*
X0145785Y0045241D01*
X0145118Y0046850D01*
X0143887Y0048082D01*
X0142277Y0048749D01*
X0140535Y0048749D01*
X0138926Y0048082D01*
X0137694Y0046850D01*
X0137028Y0045241D01*
X0137028Y0043499D01*
X0137694Y0041890D01*
X0138926Y0040658D01*
X0140535Y0039991D01*
X0142277Y0039991D01*
X0140397Y0040049D02*
X0115657Y0040049D01*
X0115917Y0040133D02*
X0116558Y0040460D01*
X0117140Y0040883D01*
X0117649Y0041392D01*
X0118072Y0041974D01*
X0118399Y0042615D01*
X0118621Y0043300D01*
X0118734Y0044010D01*
X0118734Y0044284D01*
X0114248Y0044284D01*
X0114248Y0039798D01*
X0114522Y0039798D01*
X0115233Y0039911D01*
X0115917Y0040133D01*
X0114248Y0040049D02*
X0114076Y0040049D01*
X0114076Y0039798D02*
X0114076Y0044284D01*
X0109591Y0044284D01*
X0109591Y0044010D01*
X0109703Y0043300D01*
X0109925Y0042615D01*
X0110252Y0041974D01*
X0110675Y0041392D01*
X0111184Y0040883D01*
X0111766Y0040460D01*
X0112407Y0040133D01*
X0113092Y0039911D01*
X0113802Y0039798D01*
X0114076Y0039798D01*
X0112668Y0040049D02*
X0105172Y0040049D01*
X0107632Y0041647D02*
X0110490Y0041647D01*
X0109721Y0043246D02*
X0108436Y0043246D01*
X0108541Y0044844D02*
X0109609Y0044844D01*
X0109591Y0044730D02*
X0109591Y0044456D01*
X0114076Y0044456D01*
X0114076Y0044284D01*
X0114248Y0044284D01*
X0114248Y0044456D01*
X0114076Y0044456D01*
X0114076Y0048942D01*
X0113802Y0048942D01*
X0113092Y0048829D01*
X0112407Y0048607D01*
X0111766Y0048280D01*
X0111184Y0047857D01*
X0110675Y0047348D01*
X0110252Y0046766D01*
X0109925Y0046125D01*
X0109703Y0045441D01*
X0109591Y0044730D01*
X0114076Y0044844D02*
X0114248Y0044844D01*
X0114248Y0044456D02*
X0114248Y0048942D01*
X0114522Y0048942D01*
X0115233Y0048829D01*
X0115917Y0048607D01*
X0116558Y0048280D01*
X0117140Y0047857D01*
X0117649Y0047348D01*
X0118072Y0046766D01*
X0118399Y0046125D01*
X0118621Y0045441D01*
X0118734Y0044730D01*
X0118734Y0044456D01*
X0114248Y0044456D01*
X0114248Y0043246D02*
X0114076Y0043246D01*
X0114076Y0041647D02*
X0114248Y0041647D01*
X0117835Y0041647D02*
X0137937Y0041647D01*
X0137132Y0043246D02*
X0118604Y0043246D01*
X0118716Y0044844D02*
X0137028Y0044844D01*
X0137525Y0046443D02*
X0118237Y0046443D01*
X0116887Y0048041D02*
X0138885Y0048041D01*
X0143928Y0048041D02*
X0148885Y0048041D01*
X0147525Y0046443D02*
X0145287Y0046443D01*
X0145785Y0044844D02*
X0147028Y0044844D01*
X0147132Y0043246D02*
X0145680Y0043246D01*
X0144876Y0041647D02*
X0147937Y0041647D01*
X0154876Y0041647D02*
X0157734Y0041647D01*
X0156965Y0043246D02*
X0155680Y0043246D01*
X0155785Y0044844D02*
X0156853Y0044844D01*
X0156835Y0044730D02*
X0156835Y0044456D01*
X0161320Y0044456D01*
X0161320Y0044284D01*
X0161492Y0044284D01*
X0161492Y0044456D01*
X0161320Y0044456D01*
X0161320Y0048942D01*
X0161046Y0048942D01*
X0160336Y0048829D01*
X0159651Y0048607D01*
X0159010Y0048280D01*
X0158428Y0047857D01*
X0157919Y0047348D01*
X0157496Y0046766D01*
X0157170Y0046125D01*
X0156947Y0045441D01*
X0156835Y0044730D01*
X0161320Y0044844D02*
X0161492Y0044844D01*
X0161492Y0044456D02*
X0161492Y0048942D01*
X0161766Y0048942D01*
X0162477Y0048829D01*
X0163161Y0048607D01*
X0163802Y0048280D01*
X0164385Y0047857D01*
X0164893Y0047348D01*
X0165316Y0046766D01*
X0165643Y0046125D01*
X0165865Y0045441D01*
X0165978Y0044730D01*
X0165978Y0044456D01*
X0161492Y0044456D01*
X0161492Y0043246D02*
X0161320Y0043246D01*
X0161320Y0041647D02*
X0161492Y0041647D01*
X0165079Y0041647D02*
X0216693Y0041647D01*
X0216693Y0043246D02*
X0165848Y0043246D01*
X0165960Y0044844D02*
X0216693Y0044844D01*
X0216693Y0046443D02*
X0165481Y0046443D01*
X0164131Y0048041D02*
X0216693Y0048041D01*
X0216693Y0049640D02*
X0106969Y0049640D01*
X0106969Y0051238D02*
X0216693Y0051238D01*
X0216693Y0052837D02*
X0106969Y0052837D01*
X0101355Y0052837D02*
X0006600Y0052837D01*
X0006600Y0051238D02*
X0101355Y0051238D01*
X0101355Y0049640D02*
X0006600Y0049640D01*
X0006600Y0054435D02*
X0101269Y0054435D01*
X0099670Y0056034D02*
X0051698Y0056034D01*
X0051502Y0055838D02*
X0053836Y0058172D01*
X0054052Y0058692D01*
X0060040Y0058692D01*
X0060982Y0059634D01*
X0060982Y0066114D01*
X0060040Y0067056D01*
X0054052Y0067056D01*
X0053836Y0067576D01*
X0051502Y0069910D01*
X0048451Y0071174D01*
X0045149Y0071174D01*
X0042098Y0069910D01*
X0039764Y0067576D01*
X0038500Y0064525D01*
X0038500Y0061223D01*
X0039764Y0058172D01*
X0042098Y0055838D01*
X0045149Y0054574D01*
X0048451Y0054574D01*
X0051502Y0055838D01*
X0053296Y0057632D02*
X0098072Y0057632D01*
X0094668Y0059231D02*
X0088932Y0059231D01*
X0089169Y0059329D02*
X0090345Y0060505D01*
X0090982Y0062042D01*
X0090982Y0063706D01*
X0090345Y0065243D01*
X0089169Y0066419D01*
X0087632Y0067056D01*
X0085968Y0067056D01*
X0084431Y0066419D01*
X0083255Y0065243D01*
X0082618Y0063706D01*
X0082618Y0062042D01*
X0083255Y0060505D01*
X0084431Y0059329D01*
X0085968Y0058692D01*
X0087632Y0058692D01*
X0089169Y0059329D01*
X0090480Y0060829D02*
X0093120Y0060829D01*
X0092618Y0062428D02*
X0090982Y0062428D01*
X0090849Y0064026D02*
X0092751Y0064026D01*
X0093637Y0065625D02*
X0089963Y0065625D01*
X0083637Y0065625D02*
X0079963Y0065625D01*
X0080345Y0065243D02*
X0079169Y0066419D01*
X0077632Y0067056D01*
X0075968Y0067056D01*
X0074431Y0066419D01*
X0073255Y0065243D01*
X0072618Y0063706D01*
X0072618Y0062042D01*
X0073255Y0060505D01*
X0074431Y0059329D01*
X0075968Y0058692D01*
X0077632Y0058692D01*
X0079169Y0059329D01*
X0080345Y0060505D01*
X0080982Y0062042D01*
X0080982Y0063706D01*
X0080345Y0065243D01*
X0080849Y0064026D02*
X0082751Y0064026D01*
X0082618Y0062428D02*
X0080982Y0062428D01*
X0080480Y0060829D02*
X0083120Y0060829D01*
X0084668Y0059231D02*
X0078932Y0059231D01*
X0074668Y0059231D02*
X0068932Y0059231D01*
X0069169Y0059329D02*
X0070345Y0060505D01*
X0070982Y0062042D01*
X0070982Y0063706D01*
X0070345Y0065243D01*
X0069169Y0066419D01*
X0067632Y0067056D01*
X0065968Y0067056D01*
X0064431Y0066419D01*
X0063255Y0065243D01*
X0062618Y0063706D01*
X0062618Y0062042D01*
X0063255Y0060505D01*
X0064431Y0059329D01*
X0065968Y0058692D01*
X0067632Y0058692D01*
X0069169Y0059329D01*
X0070480Y0060829D02*
X0073120Y0060829D01*
X0072618Y0062428D02*
X0070982Y0062428D01*
X0070849Y0064026D02*
X0072751Y0064026D01*
X0073637Y0065625D02*
X0069963Y0065625D01*
X0063637Y0065625D02*
X0060982Y0065625D01*
X0060982Y0064026D02*
X0062751Y0064026D01*
X0062618Y0062428D02*
X0060982Y0062428D01*
X0060982Y0060829D02*
X0063120Y0060829D01*
X0064668Y0059231D02*
X0060579Y0059231D01*
X0041902Y0056034D02*
X0006600Y0056034D01*
X0006600Y0057632D02*
X0040304Y0057632D01*
X0039325Y0059231D02*
X0006600Y0059231D01*
X0006600Y0060829D02*
X0038663Y0060829D01*
X0038500Y0062428D02*
X0006600Y0062428D01*
X0006600Y0064026D02*
X0038500Y0064026D01*
X0038956Y0065625D02*
X0006600Y0065625D01*
X0006600Y0067223D02*
X0039618Y0067223D01*
X0041010Y0068822D02*
X0006600Y0068822D01*
X0006600Y0070420D02*
X0043330Y0070420D01*
X0050270Y0070420D02*
X0203330Y0070420D01*
X0201010Y0068822D02*
X0052590Y0068822D01*
X0053982Y0067223D02*
X0186295Y0067223D01*
X0186456Y0067249D02*
X0185776Y0067141D01*
X0185121Y0066928D01*
X0184507Y0066616D01*
X0183950Y0066211D01*
X0183463Y0065724D01*
X0183058Y0065167D01*
X0182746Y0064553D01*
X0182533Y0063898D01*
X0182425Y0063218D01*
X0182425Y0062874D01*
X0182425Y0062530D01*
X0182533Y0061850D01*
X0182746Y0061195D01*
X0183058Y0060581D01*
X0183463Y0060024D01*
X0183950Y0059537D01*
X0184507Y0059132D01*
X0185121Y0058820D01*
X0185776Y0058607D01*
X0186456Y0058499D01*
X0186800Y0058499D01*
X0187144Y0058499D01*
X0187824Y0058607D01*
X0188479Y0058820D01*
X0189093Y0059132D01*
X0189650Y0059537D01*
X0190137Y0060024D01*
X0190542Y0060581D01*
X0190854Y0061195D01*
X0191067Y0061850D01*
X0191175Y0062530D01*
X0191175Y0062874D01*
X0191175Y0063218D01*
X0191067Y0063898D01*
X0190854Y0064553D01*
X0190542Y0065167D01*
X0190137Y0065724D01*
X0189650Y0066211D01*
X0189093Y0066616D01*
X0188479Y0066928D01*
X0187824Y0067141D01*
X0187144Y0067249D01*
X0186800Y0067249D01*
X0186800Y0062874D01*
X0186800Y0058499D01*
X0186800Y0062874D01*
X0186800Y0062874D01*
X0191175Y0062874D01*
X0186800Y0062874D01*
X0186800Y0062874D01*
X0186800Y0062874D01*
X0182425Y0062874D01*
X0186800Y0062874D01*
X0186800Y0062874D01*
X0186800Y0067249D01*
X0186456Y0067249D01*
X0186800Y0067223D02*
X0186800Y0067223D01*
X0187305Y0067223D02*
X0199618Y0067223D01*
X0193637Y0065625D02*
X0190209Y0065625D01*
X0191026Y0064026D02*
X0192751Y0064026D01*
X0192618Y0062428D02*
X0191159Y0062428D01*
X0186800Y0062428D02*
X0186800Y0062428D01*
X0186800Y0064026D02*
X0186800Y0064026D01*
X0186800Y0065625D02*
X0186800Y0065625D01*
X0183391Y0065625D02*
X0179963Y0065625D01*
X0180345Y0065243D02*
X0179169Y0066419D01*
X0177632Y0067056D01*
X0175968Y0067056D01*
X0174431Y0066419D01*
X0173255Y0065243D01*
X0172618Y0063706D01*
X0172618Y0062042D01*
X0173255Y0060505D01*
X0174431Y0059329D01*
X0175968Y0058692D01*
X0177632Y0058692D01*
X0179169Y0059329D01*
X0180345Y0060505D01*
X0180982Y0062042D01*
X0180982Y0063706D01*
X0180345Y0065243D01*
X0180849Y0064026D02*
X0182574Y0064026D01*
X0182441Y0062428D02*
X0180982Y0062428D01*
X0180480Y0060829D02*
X0182932Y0060829D01*
X0184372Y0059231D02*
X0178932Y0059231D01*
X0174668Y0059231D02*
X0168932Y0059231D01*
X0169169Y0059329D02*
X0170345Y0060505D01*
X0170982Y0062042D01*
X0170982Y0063706D01*
X0170345Y0065243D01*
X0169169Y0066419D01*
X0167632Y0067056D01*
X0165968Y0067056D01*
X0164431Y0066419D01*
X0163255Y0065243D01*
X0162618Y0063706D01*
X0162618Y0062042D01*
X0163255Y0060505D01*
X0164431Y0059329D01*
X0165968Y0058692D01*
X0167632Y0058692D01*
X0169169Y0059329D01*
X0170480Y0060829D02*
X0173120Y0060829D01*
X0172618Y0062428D02*
X0170982Y0062428D01*
X0170849Y0064026D02*
X0172751Y0064026D01*
X0173637Y0065625D02*
X0169963Y0065625D01*
X0163637Y0065625D02*
X0159963Y0065625D01*
X0160345Y0065243D02*
X0159169Y0066419D01*
X0157632Y0067056D01*
X0155968Y0067056D01*
X0154431Y0066419D01*
X0153255Y0065243D01*
X0152618Y0063706D01*
X0152618Y0062042D01*
X0153255Y0060505D01*
X0154431Y0059329D01*
X0155968Y0058692D01*
X0157632Y0058692D01*
X0159169Y0059329D01*
X0160345Y0060505D01*
X0160982Y0062042D01*
X0160982Y0063706D01*
X0160345Y0065243D01*
X0160849Y0064026D02*
X0162751Y0064026D01*
X0162618Y0062428D02*
X0160982Y0062428D01*
X0160480Y0060829D02*
X0163120Y0060829D01*
X0164668Y0059231D02*
X0158932Y0059231D01*
X0154668Y0059231D02*
X0148932Y0059231D01*
X0149169Y0059329D02*
X0150345Y0060505D01*
X0150982Y0062042D01*
X0150982Y0063706D01*
X0150345Y0065243D01*
X0149169Y0066419D01*
X0147632Y0067056D01*
X0145968Y0067056D01*
X0144431Y0066419D01*
X0143255Y0065243D01*
X0142618Y0063706D01*
X0142618Y0062042D01*
X0143255Y0060505D01*
X0144431Y0059329D01*
X0145968Y0058692D01*
X0147632Y0058692D01*
X0149169Y0059329D01*
X0150480Y0060829D02*
X0153120Y0060829D01*
X0152618Y0062428D02*
X0150982Y0062428D01*
X0150849Y0064026D02*
X0152751Y0064026D01*
X0153637Y0065625D02*
X0149963Y0065625D01*
X0143637Y0065625D02*
X0139963Y0065625D01*
X0140345Y0065243D02*
X0139169Y0066419D01*
X0137632Y0067056D01*
X0135968Y0067056D01*
X0134431Y0066419D01*
X0133255Y0065243D01*
X0132618Y0063706D01*
X0132618Y0062042D01*
X0133255Y0060505D01*
X0134431Y0059329D01*
X0135968Y0058692D01*
X0137632Y0058692D01*
X0139169Y0059329D01*
X0140345Y0060505D01*
X0140982Y0062042D01*
X0140982Y0063706D01*
X0140345Y0065243D01*
X0140849Y0064026D02*
X0142751Y0064026D01*
X0142618Y0062428D02*
X0140982Y0062428D01*
X0140480Y0060829D02*
X0143120Y0060829D01*
X0144668Y0059231D02*
X0138932Y0059231D01*
X0134668Y0059231D02*
X0128932Y0059231D01*
X0129169Y0059329D02*
X0127632Y0058692D01*
X0125968Y0058692D01*
X0124431Y0059329D01*
X0123255Y0060505D01*
X0122618Y0062042D01*
X0122618Y0063706D01*
X0123255Y0065243D01*
X0124431Y0066419D01*
X0125968Y0067056D01*
X0127632Y0067056D01*
X0129169Y0066419D01*
X0130345Y0065243D01*
X0130982Y0063706D01*
X0130982Y0062042D01*
X0130345Y0060505D01*
X0129169Y0059329D01*
X0130480Y0060829D02*
X0133120Y0060829D01*
X0132618Y0062428D02*
X0130982Y0062428D01*
X0130849Y0064026D02*
X0132751Y0064026D01*
X0133637Y0065625D02*
X0129963Y0065625D01*
X0123637Y0065625D02*
X0119963Y0065625D01*
X0120345Y0065243D02*
X0119169Y0066419D01*
X0117632Y0067056D01*
X0115968Y0067056D01*
X0114431Y0066419D01*
X0113255Y0065243D01*
X0112618Y0063706D01*
X0112618Y0062042D01*
X0113255Y0060505D01*
X0114431Y0059329D01*
X0115968Y0058692D01*
X0117632Y0058692D01*
X0119169Y0059329D01*
X0120345Y0060505D01*
X0120982Y0062042D01*
X0120982Y0063706D01*
X0120345Y0065243D01*
X0120849Y0064026D02*
X0122751Y0064026D01*
X0122618Y0062428D02*
X0120982Y0062428D01*
X0120480Y0060829D02*
X0123120Y0060829D01*
X0124668Y0059231D02*
X0118932Y0059231D01*
X0114668Y0059231D02*
X0108932Y0059231D01*
X0109169Y0059329D02*
X0110345Y0060505D01*
X0110982Y0062042D01*
X0110982Y0063706D01*
X0110345Y0065243D01*
X0109169Y0066419D01*
X0107632Y0067056D01*
X0105968Y0067056D01*
X0104431Y0066419D01*
X0103255Y0065243D01*
X0102618Y0063706D01*
X0102618Y0062042D01*
X0103255Y0060505D01*
X0104431Y0059329D01*
X0105968Y0058692D01*
X0107632Y0058692D01*
X0109169Y0059329D01*
X0110480Y0060829D02*
X0113120Y0060829D01*
X0112618Y0062428D02*
X0110982Y0062428D01*
X0110849Y0064026D02*
X0112751Y0064026D01*
X0113637Y0065625D02*
X0109963Y0065625D01*
X0103637Y0065625D02*
X0099963Y0065625D01*
X0100849Y0064026D02*
X0102751Y0064026D01*
X0102618Y0062428D02*
X0101216Y0062428D01*
X0102814Y0060829D02*
X0103120Y0060829D01*
X0104413Y0059231D02*
X0104668Y0059231D01*
X0106011Y0057632D02*
X0200304Y0057632D01*
X0199325Y0059231D02*
X0198932Y0059231D01*
X0194668Y0059231D02*
X0189228Y0059231D01*
X0190668Y0060829D02*
X0193120Y0060829D01*
X0186800Y0060829D02*
X0186800Y0060829D01*
X0186800Y0059231D02*
X0186800Y0059231D01*
X0201902Y0056034D02*
X0106969Y0056034D01*
X0106969Y0054435D02*
X0216693Y0054435D01*
X0216693Y0056034D02*
X0211698Y0056034D01*
X0213296Y0057632D02*
X0216693Y0057632D01*
X0215830Y0059231D02*
X0214275Y0059231D01*
X0214937Y0060829D02*
X0215053Y0060829D01*
X0215100Y0064026D02*
X0215564Y0064026D01*
X0214644Y0065625D02*
X0217414Y0065625D01*
X0219990Y0067223D02*
X0213982Y0067223D01*
X0212590Y0068822D02*
X0221588Y0068822D01*
X0223187Y0070420D02*
X0210270Y0070420D01*
X0224785Y0072019D02*
X0006600Y0072019D01*
X0006600Y0073617D02*
X0143062Y0073617D01*
X0143170Y0073582D02*
X0143854Y0073474D01*
X0146800Y0073474D01*
X0149746Y0073474D01*
X0150430Y0073582D01*
X0151089Y0073796D01*
X0151706Y0074111D01*
X0152266Y0074518D01*
X0152756Y0075008D01*
X0153163Y0075568D01*
X0153478Y0076185D01*
X0153692Y0076844D01*
X0153800Y0077528D01*
X0153800Y0077874D01*
X0153800Y0078220D01*
X0153692Y0078904D01*
X0153478Y0079563D01*
X0153163Y0080180D01*
X0152756Y0080740D01*
X0152266Y0081230D01*
X0151706Y0081637D01*
X0151089Y0081952D01*
X0150430Y0082166D01*
X0149746Y0082274D01*
X0146800Y0082274D01*
X0146800Y0077874D01*
X0146800Y0073474D01*
X0146800Y0077874D01*
X0146800Y0077874D01*
X0146800Y0077874D01*
X0153800Y0077874D01*
X0146800Y0077874D01*
X0146800Y0077874D01*
X0146800Y0082274D01*
X0143854Y0082274D01*
X0143170Y0082166D01*
X0142511Y0081952D01*
X0141894Y0081637D01*
X0141334Y0081230D01*
X0140844Y0080740D01*
X0140437Y0080180D01*
X0140122Y0079563D01*
X0139908Y0078904D01*
X0139800Y0078220D01*
X0139800Y0077874D01*
X0139800Y0077528D01*
X0139908Y0076844D01*
X0140122Y0076185D01*
X0140437Y0075568D01*
X0140844Y0075008D01*
X0141334Y0074518D01*
X0141894Y0074111D01*
X0142511Y0073796D01*
X0143170Y0073582D01*
X0140692Y0075216D02*
X0118781Y0075216D01*
X0118106Y0074541D02*
X0120570Y0077005D01*
X0120570Y0080491D01*
X0118106Y0082955D01*
X0114620Y0082955D01*
X0112156Y0080491D01*
X0112156Y0077005D01*
X0114620Y0074541D01*
X0118106Y0074541D01*
X0120379Y0076814D02*
X0139918Y0076814D01*
X0139800Y0077874D02*
X0146800Y0077874D01*
X0146800Y0077874D01*
X0139800Y0077874D01*
X0139831Y0078413D02*
X0120570Y0078413D01*
X0120570Y0080011D02*
X0140351Y0080011D01*
X0141856Y0081610D02*
X0119451Y0081610D01*
X0113275Y0081610D02*
X0079724Y0081610D01*
X0080763Y0080571D02*
X0078186Y0083148D01*
X0076363Y0083148D01*
X0076363Y0078748D01*
X0076363Y0074348D01*
X0078186Y0074348D01*
X0080763Y0076925D01*
X0080763Y0078748D01*
X0076363Y0078748D01*
X0076363Y0078748D01*
X0076363Y0078748D01*
X0076363Y0074348D01*
X0074540Y0074348D01*
X0071963Y0076925D01*
X0071963Y0078748D01*
X0076363Y0078748D01*
X0080763Y0078748D01*
X0080763Y0080571D01*
X0080763Y0080011D02*
X0112156Y0080011D01*
X0112156Y0078413D02*
X0080763Y0078413D01*
X0076363Y0078413D02*
X0076363Y0078413D01*
X0076363Y0078748D02*
X0076363Y0078748D01*
X0071963Y0078748D01*
X0071963Y0080571D01*
X0074540Y0083148D01*
X0076363Y0083148D01*
X0076363Y0078748D01*
X0076363Y0078748D01*
X0076363Y0080011D02*
X0076363Y0080011D01*
X0076363Y0081610D02*
X0076363Y0081610D01*
X0073002Y0081610D02*
X0006600Y0081610D01*
X0006600Y0080011D02*
X0071963Y0080011D01*
X0071963Y0078413D02*
X0006600Y0078413D01*
X0006600Y0076814D02*
X0072074Y0076814D01*
X0073673Y0075216D02*
X0006600Y0075216D01*
X0006600Y0083209D02*
X0269346Y0083209D01*
X0269346Y0084807D02*
X0006600Y0084807D01*
X0006600Y0086406D02*
X0269346Y0086406D01*
X0269346Y0088004D02*
X0006600Y0088004D01*
X0006600Y0089603D02*
X0074122Y0089603D01*
X0075057Y0088667D02*
X0078543Y0088667D01*
X0081007Y0091131D01*
X0081007Y0094617D01*
X0078543Y0097081D01*
X0075057Y0097081D01*
X0072593Y0094617D01*
X0072593Y0091131D01*
X0075057Y0088667D01*
X0072593Y0091201D02*
X0006600Y0091201D01*
X0006600Y0092800D02*
X0072593Y0092800D01*
X0072593Y0094398D02*
X0006600Y0094398D01*
X0006600Y0095997D02*
X0073973Y0095997D01*
X0079627Y0095997D02*
X0113700Y0095997D01*
X0114977Y0097274D02*
X0112400Y0094697D01*
X0112400Y0092874D01*
X0112400Y0091051D01*
X0114977Y0088474D01*
X0116800Y0088474D01*
X0118623Y0088474D01*
X0121200Y0091051D01*
X0121200Y0092874D01*
X0121200Y0094697D01*
X0118623Y0097274D01*
X0116800Y0097274D01*
X0116800Y0092874D01*
X0116800Y0088474D01*
X0116800Y0092874D01*
X0116800Y0092874D01*
X0121200Y0092874D01*
X0116800Y0092874D01*
X0116800Y0092874D01*
X0116800Y0092874D01*
X0112400Y0092874D01*
X0116800Y0092874D01*
X0116800Y0092874D01*
X0116800Y0097274D01*
X0114977Y0097274D01*
X0116800Y0095997D02*
X0116800Y0095997D01*
X0116800Y0094398D02*
X0116800Y0094398D01*
X0119900Y0095997D02*
X0143973Y0095997D01*
X0145057Y0097081D02*
X0142593Y0094617D01*
X0142593Y0091131D01*
X0145057Y0088667D01*
X0148543Y0088667D01*
X0151007Y0091131D01*
X0151007Y0094617D01*
X0148543Y0097081D01*
X0145057Y0097081D01*
X0149627Y0095997D02*
X0183700Y0095997D01*
X0184977Y0097274D02*
X0182400Y0094697D01*
X0182400Y0092874D01*
X0182400Y0091051D01*
X0184977Y0088474D01*
X0186800Y0088474D01*
X0188623Y0088474D01*
X0191200Y0091051D01*
X0191200Y0092874D01*
X0191200Y0094697D01*
X0188623Y0097274D01*
X0186800Y0097274D01*
X0186800Y0092874D01*
X0186800Y0088474D01*
X0186800Y0092874D01*
X0186800Y0092874D01*
X0191200Y0092874D01*
X0186800Y0092874D01*
X0186800Y0092874D01*
X0186800Y0092874D01*
X0182400Y0092874D01*
X0186800Y0092874D01*
X0186800Y0092874D01*
X0186800Y0097274D01*
X0184977Y0097274D01*
X0186800Y0095997D02*
X0186800Y0095997D01*
X0186800Y0094398D02*
X0186800Y0094398D01*
X0189900Y0095997D02*
X0230000Y0095997D01*
X0230000Y0095057D02*
X0233983Y0091074D01*
X0236600Y0091074D01*
X0236600Y0097674D01*
X0237000Y0097674D01*
X0237000Y0098074D01*
X0243600Y0098074D01*
X0243600Y0100691D01*
X0239624Y0104667D01*
X0270472Y0104667D01*
X0279081Y0096057D01*
X0279983Y0095155D01*
X0281162Y0094667D01*
X0300472Y0094667D01*
X0303525Y0091614D01*
X0302894Y0090984D01*
X0302193Y0089290D01*
X0302193Y0081458D01*
X0302894Y0079764D01*
X0304190Y0078468D01*
X0305884Y0077767D01*
X0307716Y0077767D01*
X0309410Y0078468D01*
X0310706Y0079764D01*
X0311407Y0081458D01*
X0311407Y0089290D01*
X0310706Y0090984D01*
X0310007Y0091682D01*
X0310007Y0093512D01*
X0309519Y0094691D01*
X0308617Y0095593D01*
X0304519Y0099691D01*
X0303617Y0100593D01*
X0302438Y0101081D01*
X0283128Y0101081D01*
X0273617Y0110593D01*
X0272438Y0111081D01*
X0189543Y0111081D01*
X0188543Y0112081D01*
X0185057Y0112081D01*
X0182593Y0109617D01*
X0182593Y0106131D01*
X0185057Y0103667D01*
X0188543Y0103667D01*
X0189543Y0104667D01*
X0233976Y0104667D01*
X0230000Y0100691D01*
X0230000Y0098074D01*
X0236600Y0098074D01*
X0236600Y0097674D01*
X0230000Y0097674D01*
X0230000Y0095057D01*
X0230659Y0094398D02*
X0191200Y0094398D01*
X0191200Y0092800D02*
X0232258Y0092800D01*
X0233856Y0091201D02*
X0191200Y0091201D01*
X0189751Y0089603D02*
X0269346Y0089603D01*
X0269346Y0091201D02*
X0239744Y0091201D01*
X0239617Y0091074D02*
X0243600Y0095057D01*
X0243600Y0097674D01*
X0237000Y0097674D01*
X0237000Y0091074D01*
X0239617Y0091074D01*
X0241342Y0092800D02*
X0252531Y0092800D01*
X0253057Y0092273D02*
X0255486Y0091267D01*
X0258114Y0091267D01*
X0260543Y0092273D01*
X0262401Y0094131D01*
X0263407Y0096560D01*
X0263407Y0099188D01*
X0262401Y0101617D01*
X0260543Y0103475D01*
X0258114Y0104481D01*
X0255486Y0104481D01*
X0253057Y0103475D01*
X0251199Y0101617D01*
X0250193Y0099188D01*
X0250193Y0096560D01*
X0251199Y0094131D01*
X0253057Y0092273D01*
X0251088Y0094398D02*
X0242941Y0094398D01*
X0243600Y0095997D02*
X0250426Y0095997D01*
X0250193Y0097595D02*
X0243600Y0097595D01*
X0243600Y0099194D02*
X0250195Y0099194D01*
X0250857Y0100792D02*
X0243499Y0100792D01*
X0241900Y0102391D02*
X0251973Y0102391D01*
X0254298Y0103989D02*
X0240301Y0103989D01*
X0233299Y0103989D02*
X0188865Y0103989D01*
X0184735Y0103989D02*
X0148865Y0103989D01*
X0148543Y0103667D02*
X0151007Y0106131D01*
X0151007Y0109617D01*
X0148543Y0112081D01*
X0145057Y0112081D01*
X0142593Y0109617D01*
X0142593Y0106131D01*
X0145057Y0103667D01*
X0148543Y0103667D01*
X0150463Y0105588D02*
X0183137Y0105588D01*
X0182593Y0107186D02*
X0151007Y0107186D01*
X0151007Y0108785D02*
X0182593Y0108785D01*
X0183359Y0110383D02*
X0150241Y0110383D01*
X0148642Y0111982D02*
X0184958Y0111982D01*
X0188642Y0111982D02*
X0282000Y0111982D01*
X0282000Y0112674D02*
X0282000Y0109496D01*
X0282118Y0108750D01*
X0282352Y0108031D01*
X0282695Y0107358D01*
X0283139Y0106747D01*
X0283673Y0106213D01*
X0284284Y0105769D01*
X0284957Y0105426D01*
X0285676Y0105192D01*
X0286422Y0105074D01*
X0286600Y0105074D01*
X0286600Y0112674D01*
X0282000Y0112674D01*
X0282000Y0113580D02*
X0272042Y0113580D01*
X0273640Y0115179D02*
X0282000Y0115179D01*
X0282083Y0116777D02*
X0275239Y0116777D01*
X0276837Y0118376D02*
X0282688Y0118376D01*
X0290912Y0118376D02*
X0292850Y0118376D01*
X0292193Y0116777D02*
X0291517Y0116777D01*
X0291600Y0115179D02*
X0292193Y0115179D01*
X0292193Y0113580D02*
X0291600Y0113580D01*
X0291600Y0112674D02*
X0287000Y0112674D01*
X0287000Y0105074D01*
X0287178Y0105074D01*
X0287924Y0105192D01*
X0288643Y0105426D01*
X0289316Y0105769D01*
X0289927Y0106213D01*
X0290461Y0106747D01*
X0290905Y0107358D01*
X0291248Y0108031D01*
X0291482Y0108750D01*
X0291600Y0109496D01*
X0291600Y0112674D01*
X0291600Y0111982D02*
X0292193Y0111982D01*
X0292193Y0110383D02*
X0291600Y0110383D01*
X0291487Y0108785D02*
X0292265Y0108785D01*
X0287000Y0108785D02*
X0286600Y0108785D01*
X0286600Y0110383D02*
X0287000Y0110383D01*
X0287000Y0111982D02*
X0286600Y0111982D01*
X0282000Y0110383D02*
X0273826Y0110383D01*
X0275425Y0108785D02*
X0282113Y0108785D01*
X0282820Y0107186D02*
X0277023Y0107186D01*
X0278622Y0105588D02*
X0284640Y0105588D01*
X0286600Y0105588D02*
X0287000Y0105588D01*
X0287000Y0107186D02*
X0286600Y0107186D01*
X0288960Y0105588D02*
X0295109Y0105588D01*
X0292972Y0107186D02*
X0290780Y0107186D01*
X0298491Y0105588D02*
X0305109Y0105588D01*
X0302972Y0107186D02*
X0300628Y0107186D01*
X0301335Y0108785D02*
X0302265Y0108785D01*
X0302193Y0110383D02*
X0301407Y0110383D01*
X0301407Y0111982D02*
X0302193Y0111982D01*
X0302193Y0113580D02*
X0301407Y0113580D01*
X0301407Y0115179D02*
X0302193Y0115179D01*
X0302193Y0116777D02*
X0301407Y0116777D01*
X0300750Y0118376D02*
X0302850Y0118376D01*
X0310007Y0119974D02*
X0328204Y0119974D01*
X0327918Y0119689D02*
X0326457Y0117158D01*
X0325701Y0114335D01*
X0325701Y0111413D01*
X0326457Y0108590D01*
X0327918Y0106059D01*
X0329985Y0103992D01*
X0332516Y0102531D01*
X0335339Y0101775D01*
X0338261Y0101775D01*
X0341084Y0102531D01*
X0343615Y0103992D01*
X0345682Y0106059D01*
X0347143Y0108590D01*
X0347899Y0111413D01*
X0347899Y0114335D01*
X0347143Y0117158D01*
X0345682Y0119689D01*
X0343615Y0121756D01*
X0341084Y0123217D01*
X0338261Y0123973D01*
X0335339Y0123973D01*
X0332516Y0123217D01*
X0329985Y0121756D01*
X0327918Y0119689D01*
X0327160Y0118376D02*
X0310750Y0118376D01*
X0311407Y0116777D02*
X0326355Y0116777D01*
X0325927Y0115179D02*
X0311407Y0115179D01*
X0311407Y0113580D02*
X0325701Y0113580D01*
X0325701Y0111982D02*
X0311407Y0111982D01*
X0311407Y0110383D02*
X0325977Y0110383D01*
X0326405Y0108785D02*
X0311335Y0108785D01*
X0310628Y0107186D02*
X0327268Y0107186D01*
X0328390Y0105588D02*
X0308491Y0105588D01*
X0303136Y0100792D02*
X0323881Y0100792D01*
X0323656Y0100248D02*
X0324296Y0101794D01*
X0325480Y0102978D01*
X0327026Y0103618D01*
X0328700Y0103618D01*
X0330246Y0102978D01*
X0331430Y0101794D01*
X0332070Y0100248D01*
X0332070Y0093374D01*
X0331430Y0091828D01*
X0330246Y0090644D01*
X0328700Y0090004D01*
X0327026Y0090004D01*
X0325480Y0090644D01*
X0324296Y0091828D01*
X0323656Y0093374D01*
X0323656Y0100248D01*
X0323656Y0099194D02*
X0305016Y0099194D01*
X0306614Y0097595D02*
X0323656Y0097595D01*
X0323656Y0095997D02*
X0308213Y0095997D01*
X0309640Y0094398D02*
X0323656Y0094398D01*
X0323894Y0092800D02*
X0310007Y0092800D01*
X0310488Y0091201D02*
X0324923Y0091201D01*
X0330803Y0091201D02*
X0334527Y0091201D01*
X0333751Y0090424D02*
X0333751Y0084930D01*
X0336909Y0081772D01*
X0333751Y0078613D01*
X0333751Y0073119D01*
X0336909Y0069961D01*
X0333751Y0066802D01*
X0333751Y0061308D01*
X0336909Y0058150D01*
X0333751Y0054991D01*
X0333751Y0049497D01*
X0337636Y0045612D01*
X0343130Y0045612D01*
X0347015Y0049497D01*
X0347015Y0054991D01*
X0343856Y0058150D01*
X0347015Y0061308D01*
X0347015Y0066802D01*
X0343856Y0069961D01*
X0347015Y0073119D01*
X0347015Y0078613D01*
X0343856Y0081772D01*
X0347015Y0084930D01*
X0347015Y0090424D01*
X0343130Y0094309D01*
X0337636Y0094309D01*
X0333751Y0090424D01*
X0333751Y0089603D02*
X0311278Y0089603D01*
X0311407Y0088004D02*
X0333751Y0088004D01*
X0333751Y0086406D02*
X0311407Y0086406D01*
X0311407Y0084807D02*
X0333874Y0084807D01*
X0335472Y0083209D02*
X0311407Y0083209D01*
X0311407Y0081610D02*
X0336747Y0081610D01*
X0335149Y0080011D02*
X0310808Y0080011D01*
X0309276Y0078413D02*
X0333751Y0078413D01*
X0333751Y0076814D02*
X0277561Y0076814D01*
X0277561Y0075216D02*
X0333751Y0075216D01*
X0333751Y0073617D02*
X0277561Y0073617D01*
X0277561Y0072019D02*
X0334851Y0072019D01*
X0336449Y0070420D02*
X0277561Y0070420D01*
X0277561Y0068822D02*
X0290979Y0068822D01*
X0291808Y0069044D02*
X0289237Y0068355D01*
X0286933Y0067025D01*
X0285051Y0065143D01*
X0283720Y0062838D01*
X0283031Y0060268D01*
X0283031Y0057606D01*
X0283720Y0055036D01*
X0285051Y0052731D01*
X0286933Y0050849D01*
X0289237Y0049519D01*
X0291808Y0048830D01*
X0294469Y0048830D01*
X0297040Y0049519D01*
X0299344Y0050849D01*
X0301226Y0052731D01*
X0302557Y0055036D01*
X0303246Y0057606D01*
X0303246Y0060268D01*
X0302557Y0062838D01*
X0301226Y0065143D01*
X0299344Y0067025D01*
X0297040Y0068355D01*
X0294469Y0069044D01*
X0291808Y0069044D01*
X0295298Y0068822D02*
X0335770Y0068822D01*
X0334172Y0067223D02*
X0299000Y0067223D01*
X0300744Y0065625D02*
X0333751Y0065625D01*
X0333751Y0064026D02*
X0301871Y0064026D01*
X0302667Y0062428D02*
X0324930Y0062428D01*
X0325480Y0062978D02*
X0324296Y0061794D01*
X0323656Y0060248D01*
X0323656Y0053374D01*
X0324296Y0051828D01*
X0325480Y0050644D01*
X0327026Y0050004D01*
X0328700Y0050004D01*
X0330246Y0050644D01*
X0331430Y0051828D01*
X0332070Y0053374D01*
X0332070Y0060248D01*
X0331430Y0061794D01*
X0330246Y0062978D01*
X0328700Y0063618D01*
X0327026Y0063618D01*
X0325480Y0062978D01*
X0323897Y0060829D02*
X0303095Y0060829D01*
X0303246Y0059231D02*
X0323656Y0059231D01*
X0323656Y0057632D02*
X0303246Y0057632D01*
X0302824Y0056034D02*
X0306460Y0056034D01*
X0306652Y0056155D02*
X0305673Y0055539D01*
X0304768Y0054818D01*
X0303950Y0054000D01*
X0303229Y0053096D01*
X0302614Y0052116D01*
X0302112Y0051074D01*
X0301729Y0049982D01*
X0301472Y0048854D01*
X0301367Y0047926D01*
X0310842Y0047926D01*
X0310842Y0046326D01*
X0301367Y0046326D01*
X0301472Y0045398D01*
X0301729Y0044270D01*
X0302112Y0043178D01*
X0302614Y0042136D01*
X0303229Y0041156D01*
X0303950Y0040252D01*
X0304768Y0039434D01*
X0305673Y0038712D01*
X0306652Y0038097D01*
X0307695Y0037595D01*
X0308787Y0037213D01*
X0309914Y0036956D01*
X0310843Y0036851D01*
X0310843Y0046326D01*
X0312442Y0046326D01*
X0312442Y0036851D01*
X0313371Y0036956D01*
X0314498Y0037213D01*
X0315590Y0037595D01*
X0316633Y0038097D01*
X0317612Y0038712D01*
X0318517Y0039434D01*
X0319335Y0040252D01*
X0320056Y0041156D01*
X0320672Y0042136D01*
X0321173Y0043178D01*
X0321556Y0044270D01*
X0321813Y0045398D01*
X0321918Y0046326D01*
X0312443Y0046326D01*
X0312443Y0047926D01*
X0321918Y0047926D01*
X0321813Y0048854D01*
X0321556Y0049982D01*
X0321173Y0051074D01*
X0320672Y0052116D01*
X0320056Y0053096D01*
X0319335Y0054000D01*
X0318517Y0054818D01*
X0317612Y0055539D01*
X0316633Y0056155D01*
X0315590Y0056657D01*
X0314498Y0057039D01*
X0313371Y0057296D01*
X0312442Y0057401D01*
X0312442Y0047926D01*
X0310843Y0047926D01*
X0310843Y0057401D01*
X0309914Y0057296D01*
X0308787Y0057039D01*
X0307695Y0056657D01*
X0306652Y0056155D01*
X0304385Y0054435D02*
X0302210Y0054435D01*
X0303066Y0052837D02*
X0301287Y0052837D01*
X0302191Y0051238D02*
X0299733Y0051238D01*
X0301651Y0049640D02*
X0297249Y0049640D01*
X0301380Y0048041D02*
X0277561Y0048041D01*
X0277561Y0046443D02*
X0310842Y0046443D01*
X0310843Y0048041D02*
X0312442Y0048041D01*
X0312443Y0046443D02*
X0336805Y0046443D01*
X0335206Y0048041D02*
X0321905Y0048041D01*
X0321634Y0049640D02*
X0333751Y0049640D01*
X0333751Y0051238D02*
X0330840Y0051238D01*
X0331847Y0052837D02*
X0333751Y0052837D01*
X0333751Y0054435D02*
X0332070Y0054435D01*
X0332070Y0056034D02*
X0334793Y0056034D01*
X0336392Y0057632D02*
X0332070Y0057632D01*
X0332070Y0059231D02*
X0335828Y0059231D01*
X0334229Y0060829D02*
X0331829Y0060829D01*
X0330796Y0062428D02*
X0333751Y0062428D01*
X0344938Y0059231D02*
X0351921Y0059231D01*
X0351921Y0060829D02*
X0346536Y0060829D01*
X0347015Y0062428D02*
X0351921Y0062428D01*
X0351921Y0064026D02*
X0347015Y0064026D01*
X0347015Y0065625D02*
X0351921Y0065625D01*
X0351921Y0067223D02*
X0346594Y0067223D01*
X0344995Y0068822D02*
X0351921Y0068822D01*
X0351921Y0070420D02*
X0344316Y0070420D01*
X0345915Y0072019D02*
X0351921Y0072019D01*
X0351921Y0073617D02*
X0347015Y0073617D01*
X0347015Y0075216D02*
X0351921Y0075216D01*
X0351921Y0076814D02*
X0347015Y0076814D01*
X0347015Y0078413D02*
X0351921Y0078413D01*
X0351921Y0080011D02*
X0345616Y0080011D01*
X0344018Y0081610D02*
X0351921Y0081610D01*
X0351921Y0083209D02*
X0345293Y0083209D01*
X0346892Y0084807D02*
X0351921Y0084807D01*
X0351921Y0086406D02*
X0347015Y0086406D01*
X0347015Y0088004D02*
X0351921Y0088004D01*
X0351921Y0089603D02*
X0347015Y0089603D01*
X0346238Y0091201D02*
X0351921Y0091201D01*
X0351921Y0092800D02*
X0344639Y0092800D01*
X0351921Y0094398D02*
X0332070Y0094398D01*
X0332070Y0095997D02*
X0351921Y0095997D01*
X0351921Y0097595D02*
X0332070Y0097595D01*
X0332070Y0099194D02*
X0351921Y0099194D01*
X0351921Y0100792D02*
X0331845Y0100792D01*
X0330833Y0102391D02*
X0333040Y0102391D01*
X0329991Y0103989D02*
X0280220Y0103989D01*
X0281819Y0102391D02*
X0324893Y0102391D01*
X0340560Y0102391D02*
X0351921Y0102391D01*
X0351921Y0103989D02*
X0343609Y0103989D01*
X0345210Y0105588D02*
X0351921Y0105588D01*
X0351921Y0107186D02*
X0346332Y0107186D01*
X0347195Y0108785D02*
X0351921Y0108785D01*
X0351921Y0110383D02*
X0347623Y0110383D01*
X0347899Y0111982D02*
X0351921Y0111982D01*
X0351921Y0113580D02*
X0347899Y0113580D01*
X0347673Y0115179D02*
X0351921Y0115179D01*
X0351921Y0116777D02*
X0347245Y0116777D01*
X0346440Y0118376D02*
X0351921Y0118376D01*
X0351921Y0119974D02*
X0345396Y0119974D01*
X0343798Y0121573D02*
X0351921Y0121573D01*
X0351921Y0123171D02*
X0341163Y0123171D01*
X0332437Y0123171D02*
X0308538Y0123171D01*
X0309775Y0121573D02*
X0329802Y0121573D01*
X0351921Y0124770D02*
X0306940Y0124770D01*
X0274160Y0124770D02*
X0214999Y0124770D01*
X0214336Y0126368D02*
X0351921Y0126368D01*
X0272562Y0123171D02*
X0215100Y0123171D01*
X0215100Y0121573D02*
X0270963Y0121573D01*
X0269365Y0119974D02*
X0214583Y0119974D01*
X0199594Y0118581D02*
X0167661Y0118581D01*
X0167824Y0118607D01*
X0168479Y0118820D01*
X0169093Y0119132D01*
X0169650Y0119537D01*
X0170137Y0120024D01*
X0170542Y0120581D01*
X0170854Y0121195D01*
X0171067Y0121850D01*
X0171175Y0122530D01*
X0171175Y0122874D01*
X0171175Y0123218D01*
X0171067Y0123898D01*
X0170854Y0124553D01*
X0170542Y0125167D01*
X0170137Y0125724D01*
X0169650Y0126211D01*
X0169093Y0126616D01*
X0168781Y0126775D01*
X0175290Y0126775D01*
X0174431Y0126419D01*
X0173255Y0125243D01*
X0172618Y0123706D01*
X0172618Y0122042D01*
X0173255Y0120505D01*
X0174431Y0119329D01*
X0175968Y0118692D01*
X0177632Y0118692D01*
X0179169Y0119329D01*
X0180345Y0120505D01*
X0180982Y0122042D01*
X0180982Y0123706D01*
X0180345Y0125243D01*
X0179169Y0126419D01*
X0178310Y0126775D01*
X0185290Y0126775D01*
X0184431Y0126419D01*
X0183255Y0125243D01*
X0182618Y0123706D01*
X0182618Y0122042D01*
X0183255Y0120505D01*
X0184431Y0119329D01*
X0185968Y0118692D01*
X0187632Y0118692D01*
X0189169Y0119329D01*
X0190345Y0120505D01*
X0190982Y0122042D01*
X0190982Y0123706D01*
X0190345Y0125243D01*
X0189169Y0126419D01*
X0188310Y0126775D01*
X0195290Y0126775D01*
X0194431Y0126419D01*
X0193255Y0125243D01*
X0192618Y0123706D01*
X0192618Y0122042D01*
X0193255Y0120505D01*
X0194431Y0119329D01*
X0195968Y0118692D01*
X0197632Y0118692D01*
X0199169Y0119329D01*
X0199251Y0119411D01*
X0199594Y0118581D01*
X0193786Y0119974D02*
X0189814Y0119974D01*
X0190787Y0121573D02*
X0192813Y0121573D01*
X0192618Y0123171D02*
X0190982Y0123171D01*
X0190541Y0124770D02*
X0193059Y0124770D01*
X0194380Y0126368D02*
X0189220Y0126368D01*
X0184380Y0126368D02*
X0179220Y0126368D01*
X0180541Y0124770D02*
X0183059Y0124770D01*
X0182618Y0123171D02*
X0180982Y0123171D01*
X0180787Y0121573D02*
X0182813Y0121573D01*
X0183786Y0119974D02*
X0179814Y0119974D01*
X0173786Y0119974D02*
X0170087Y0119974D01*
X0170977Y0121573D02*
X0172813Y0121573D01*
X0172618Y0123171D02*
X0171175Y0123171D01*
X0171175Y0122874D02*
X0166800Y0122874D01*
X0166800Y0122874D01*
X0171175Y0122874D01*
X0166800Y0122874D02*
X0162425Y0122874D01*
X0166800Y0122874D01*
X0166800Y0122874D01*
X0162623Y0121573D02*
X0160787Y0121573D01*
X0160982Y0123171D02*
X0162425Y0123171D01*
X0162856Y0124770D02*
X0160541Y0124770D01*
X0159220Y0126368D02*
X0164167Y0126368D01*
X0169433Y0126368D02*
X0174380Y0126368D01*
X0173059Y0124770D02*
X0170744Y0124770D01*
X0163513Y0119974D02*
X0159814Y0119974D01*
X0153786Y0119974D02*
X0149814Y0119974D01*
X0150787Y0121573D02*
X0152813Y0121573D01*
X0152618Y0123171D02*
X0150982Y0123171D01*
X0150541Y0124770D02*
X0153059Y0124770D01*
X0154380Y0126368D02*
X0149220Y0126368D01*
X0144380Y0126368D02*
X0139220Y0126368D01*
X0140541Y0124770D02*
X0143059Y0124770D01*
X0142618Y0123171D02*
X0140982Y0123171D01*
X0140787Y0121573D02*
X0142813Y0121573D01*
X0143786Y0119974D02*
X0139814Y0119974D01*
X0140666Y0118376D02*
X0053921Y0118376D01*
X0052441Y0116777D02*
X0138668Y0116777D01*
X0137069Y0115179D02*
X0049911Y0115179D01*
X0043689Y0115179D02*
X0032673Y0115179D01*
X0032899Y0114335D02*
X0032143Y0117158D01*
X0030682Y0119689D01*
X0028615Y0121756D01*
X0026084Y0123217D01*
X0023261Y0123973D01*
X0020339Y0123973D01*
X0017516Y0123217D01*
X0014985Y0121756D01*
X0012918Y0119689D01*
X0011457Y0117158D01*
X0010701Y0114335D01*
X0010701Y0111413D01*
X0011457Y0108590D01*
X0012918Y0106059D01*
X0014985Y0103992D01*
X0017516Y0102531D01*
X0020339Y0101775D01*
X0023261Y0101775D01*
X0026084Y0102531D01*
X0028615Y0103992D01*
X0030682Y0106059D01*
X0032143Y0108590D01*
X0032899Y0111413D01*
X0032899Y0114335D01*
X0032899Y0113580D02*
X0135471Y0113580D01*
X0133872Y0111982D02*
X0118642Y0111982D01*
X0114958Y0111982D02*
X0078642Y0111982D01*
X0078543Y0112081D02*
X0075057Y0112081D01*
X0072593Y0109617D01*
X0072593Y0106131D01*
X0075057Y0103667D01*
X0078543Y0103667D01*
X0081007Y0106131D01*
X0081007Y0109617D01*
X0078543Y0112081D01*
X0080241Y0110383D02*
X0113359Y0110383D01*
X0112593Y0108785D02*
X0081007Y0108785D01*
X0081007Y0107186D02*
X0112593Y0107186D01*
X0113137Y0105588D02*
X0080463Y0105588D01*
X0078865Y0103989D02*
X0114735Y0103989D01*
X0118865Y0103989D02*
X0144735Y0103989D01*
X0143137Y0105588D02*
X0136549Y0105588D01*
X0138148Y0107186D02*
X0142593Y0107186D01*
X0142593Y0108785D02*
X0139746Y0108785D01*
X0141345Y0110383D02*
X0143359Y0110383D01*
X0142943Y0111982D02*
X0144958Y0111982D01*
X0133786Y0119974D02*
X0129814Y0119974D01*
X0130787Y0121573D02*
X0132813Y0121573D01*
X0132618Y0123171D02*
X0130982Y0123171D01*
X0130541Y0124770D02*
X0133059Y0124770D01*
X0134380Y0126368D02*
X0129220Y0126368D01*
X0124380Y0126368D02*
X0119220Y0126368D01*
X0120541Y0124770D02*
X0123059Y0124770D01*
X0122618Y0123171D02*
X0120982Y0123171D01*
X0120787Y0121573D02*
X0122813Y0121573D01*
X0123786Y0119974D02*
X0119814Y0119974D01*
X0113786Y0119974D02*
X0109814Y0119974D01*
X0110787Y0121573D02*
X0112813Y0121573D01*
X0112618Y0123171D02*
X0110982Y0123171D01*
X0110541Y0124770D02*
X0113059Y0124770D01*
X0114380Y0126368D02*
X0109220Y0126368D01*
X0104380Y0126368D02*
X0099220Y0126368D01*
X0100541Y0124770D02*
X0103059Y0124770D01*
X0102618Y0123171D02*
X0100982Y0123171D01*
X0100787Y0121573D02*
X0102813Y0121573D01*
X0103786Y0119974D02*
X0099814Y0119974D01*
X0093786Y0119974D02*
X0089814Y0119974D01*
X0090787Y0121573D02*
X0092813Y0121573D01*
X0092618Y0123171D02*
X0090982Y0123171D01*
X0090541Y0124770D02*
X0093059Y0124770D01*
X0094380Y0126368D02*
X0089220Y0126368D01*
X0084380Y0126368D02*
X0079220Y0126368D01*
X0080541Y0124770D02*
X0083059Y0124770D01*
X0082618Y0123171D02*
X0080982Y0123171D01*
X0080787Y0121573D02*
X0082813Y0121573D01*
X0083786Y0119974D02*
X0079814Y0119974D01*
X0073786Y0119974D02*
X0069814Y0119974D01*
X0070787Y0121573D02*
X0072813Y0121573D01*
X0072618Y0123171D02*
X0070982Y0123171D01*
X0070541Y0124770D02*
X0073059Y0124770D01*
X0074380Y0126368D02*
X0069220Y0126368D01*
X0064380Y0126368D02*
X0059220Y0126368D01*
X0060541Y0124770D02*
X0063059Y0124770D01*
X0062618Y0123171D02*
X0060982Y0123171D01*
X0060787Y0121573D02*
X0062813Y0121573D01*
X0063786Y0119974D02*
X0059814Y0119974D01*
X0041159Y0116777D02*
X0032245Y0116777D01*
X0031440Y0118376D02*
X0039679Y0118376D01*
X0039017Y0119974D02*
X0030396Y0119974D01*
X0028798Y0121573D02*
X0038500Y0121573D01*
X0038500Y0123171D02*
X0026163Y0123171D01*
X0017437Y0123171D02*
X0006600Y0123171D01*
X0006600Y0121573D02*
X0014802Y0121573D01*
X0013204Y0119974D02*
X0006600Y0119974D01*
X0006600Y0118376D02*
X0012160Y0118376D01*
X0011355Y0116777D02*
X0006600Y0116777D01*
X0006600Y0115179D02*
X0010927Y0115179D01*
X0010701Y0113580D02*
X0006600Y0113580D01*
X0006600Y0111982D02*
X0010701Y0111982D01*
X0010977Y0110383D02*
X0006600Y0110383D01*
X0006600Y0108785D02*
X0011405Y0108785D01*
X0012268Y0107186D02*
X0006600Y0107186D01*
X0006600Y0105588D02*
X0013390Y0105588D01*
X0014991Y0103989D02*
X0006600Y0103989D01*
X0006600Y0102391D02*
X0018040Y0102391D01*
X0025560Y0102391D02*
X0231700Y0102391D01*
X0230101Y0100792D02*
X0006600Y0100792D01*
X0006600Y0099194D02*
X0230000Y0099194D01*
X0230000Y0097595D02*
X0006600Y0097595D01*
X0028609Y0103989D02*
X0074735Y0103989D01*
X0073137Y0105588D02*
X0030210Y0105588D01*
X0031332Y0107186D02*
X0072593Y0107186D01*
X0072593Y0108785D02*
X0032195Y0108785D01*
X0032623Y0110383D02*
X0073359Y0110383D01*
X0074958Y0111982D02*
X0032899Y0111982D01*
X0038601Y0124770D02*
X0006600Y0124770D01*
X0006600Y0126368D02*
X0039264Y0126368D01*
X0081007Y0094398D02*
X0112400Y0094398D01*
X0112400Y0092800D02*
X0081007Y0092800D01*
X0081007Y0091201D02*
X0112400Y0091201D01*
X0113849Y0089603D02*
X0079478Y0089603D01*
X0080652Y0076814D02*
X0112347Y0076814D01*
X0113945Y0075216D02*
X0079053Y0075216D01*
X0076363Y0075216D02*
X0076363Y0075216D01*
X0076363Y0076814D02*
X0076363Y0076814D01*
X0116800Y0089603D02*
X0116800Y0089603D01*
X0116800Y0091201D02*
X0116800Y0091201D01*
X0116800Y0092800D02*
X0116800Y0092800D01*
X0121200Y0092800D02*
X0142593Y0092800D01*
X0142593Y0091201D02*
X0121200Y0091201D01*
X0119751Y0089603D02*
X0144122Y0089603D01*
X0149478Y0089603D02*
X0183849Y0089603D01*
X0182400Y0091201D02*
X0151007Y0091201D01*
X0151007Y0092800D02*
X0182400Y0092800D01*
X0182400Y0094398D02*
X0151007Y0094398D01*
X0142593Y0094398D02*
X0121200Y0094398D01*
X0146800Y0081610D02*
X0146800Y0081610D01*
X0146800Y0080011D02*
X0146800Y0080011D01*
X0146800Y0078413D02*
X0146800Y0078413D01*
X0146800Y0076814D02*
X0146800Y0076814D01*
X0146800Y0075216D02*
X0146800Y0075216D01*
X0146800Y0073617D02*
X0146800Y0073617D01*
X0150538Y0073617D02*
X0226384Y0073617D01*
X0227982Y0075216D02*
X0192692Y0075216D01*
X0192967Y0075491D02*
X0193607Y0077037D01*
X0193607Y0078711D01*
X0192967Y0080257D01*
X0191783Y0081441D01*
X0190237Y0082081D01*
X0183363Y0082081D01*
X0181817Y0081441D01*
X0180633Y0080257D01*
X0179993Y0078711D01*
X0179993Y0077037D01*
X0180633Y0075491D01*
X0181817Y0074307D01*
X0183363Y0073667D01*
X0190237Y0073667D01*
X0191783Y0074307D01*
X0192967Y0075491D01*
X0193515Y0076814D02*
X0229581Y0076814D01*
X0231462Y0078413D02*
X0193607Y0078413D01*
X0193068Y0080011D02*
X0233061Y0080011D01*
X0237375Y0070420D02*
X0269346Y0070420D01*
X0269346Y0072019D02*
X0265018Y0072019D01*
X0266239Y0073617D02*
X0269346Y0073617D01*
X0269346Y0075216D02*
X0266750Y0075216D01*
X0266750Y0076814D02*
X0269346Y0076814D01*
X0269346Y0078413D02*
X0266115Y0078413D01*
X0264720Y0080011D02*
X0269346Y0080011D01*
X0269346Y0081610D02*
X0191374Y0081610D01*
X0182226Y0081610D02*
X0151744Y0081610D01*
X0153249Y0080011D02*
X0180532Y0080011D01*
X0179993Y0078413D02*
X0153769Y0078413D01*
X0153682Y0076814D02*
X0180085Y0076814D01*
X0180908Y0075216D02*
X0152907Y0075216D01*
X0186800Y0089603D02*
X0186800Y0089603D01*
X0186800Y0091201D02*
X0186800Y0091201D01*
X0186800Y0092800D02*
X0186800Y0092800D01*
X0236600Y0092800D02*
X0237000Y0092800D01*
X0237000Y0091201D02*
X0236600Y0091201D01*
X0236600Y0094398D02*
X0237000Y0094398D01*
X0237000Y0095997D02*
X0236600Y0095997D01*
X0236600Y0097595D02*
X0237000Y0097595D01*
X0259302Y0103989D02*
X0271149Y0103989D01*
X0272748Y0102391D02*
X0261627Y0102391D01*
X0262743Y0100792D02*
X0274346Y0100792D01*
X0275945Y0099194D02*
X0263405Y0099194D01*
X0263407Y0097595D02*
X0277543Y0097595D01*
X0279142Y0095997D02*
X0263174Y0095997D01*
X0262512Y0094398D02*
X0270429Y0094398D01*
X0269972Y0093941D02*
X0271127Y0095096D01*
X0272637Y0095721D01*
X0274270Y0095721D01*
X0275780Y0095096D01*
X0276935Y0093941D01*
X0277561Y0092431D01*
X0277561Y0035679D01*
X0276935Y0034170D01*
X0275780Y0033014D01*
X0270406Y0027640D01*
X0268896Y0027015D01*
X0265239Y0027015D01*
X0265239Y0026127D01*
X0264400Y0024103D01*
X0262851Y0022553D01*
X0260827Y0021715D01*
X0258636Y0021715D01*
X0256612Y0022553D01*
X0255063Y0024103D01*
X0254224Y0026127D01*
X0254224Y0036117D01*
X0255063Y0038142D01*
X0256612Y0039691D01*
X0258636Y0040529D01*
X0260827Y0040529D01*
X0262851Y0039691D01*
X0264400Y0038142D01*
X0265239Y0036117D01*
X0265239Y0035229D01*
X0266378Y0035229D01*
X0269346Y0038197D01*
X0269346Y0092431D01*
X0269972Y0093941D01*
X0269499Y0092800D02*
X0261069Y0092800D01*
X0276478Y0094398D02*
X0300740Y0094398D01*
X0299410Y0092280D02*
X0297716Y0092981D01*
X0295884Y0092981D01*
X0294190Y0092280D01*
X0292894Y0090984D01*
X0292193Y0089290D01*
X0292193Y0081458D01*
X0292894Y0079764D01*
X0294190Y0078468D01*
X0295884Y0077767D01*
X0297716Y0077767D01*
X0299410Y0078468D01*
X0300706Y0079764D01*
X0301407Y0081458D01*
X0301407Y0089290D01*
X0300706Y0090984D01*
X0299410Y0092280D01*
X0298155Y0092800D02*
X0302339Y0092800D01*
X0303112Y0091201D02*
X0300488Y0091201D01*
X0301278Y0089603D02*
X0302322Y0089603D01*
X0302193Y0088004D02*
X0301407Y0088004D01*
X0301407Y0086406D02*
X0302193Y0086406D01*
X0302193Y0084807D02*
X0301407Y0084807D01*
X0301407Y0083209D02*
X0302193Y0083209D01*
X0302193Y0081610D02*
X0301407Y0081610D01*
X0300808Y0080011D02*
X0302792Y0080011D01*
X0304324Y0078413D02*
X0299276Y0078413D01*
X0294324Y0078413D02*
X0289514Y0078413D01*
X0289316Y0078269D02*
X0289927Y0078713D01*
X0290461Y0079247D01*
X0290905Y0079858D01*
X0291248Y0080531D01*
X0291482Y0081250D01*
X0291600Y0081996D01*
X0291600Y0085174D01*
X0287000Y0085174D01*
X0287000Y0085574D01*
X0291600Y0085574D01*
X0291600Y0088752D01*
X0291482Y0089498D01*
X0291248Y0090217D01*
X0290905Y0090890D01*
X0290461Y0091501D01*
X0289927Y0092035D01*
X0289316Y0092479D01*
X0288643Y0092822D01*
X0287924Y0093056D01*
X0287178Y0093174D01*
X0287000Y0093174D01*
X0287000Y0085574D01*
X0286600Y0085574D01*
X0286600Y0085174D01*
X0287000Y0085174D01*
X0287000Y0077574D01*
X0287178Y0077574D01*
X0287924Y0077692D01*
X0288643Y0077926D01*
X0289316Y0078269D01*
X0287000Y0078413D02*
X0286600Y0078413D01*
X0286600Y0077574D02*
X0286600Y0085174D01*
X0282000Y0085174D01*
X0282000Y0081996D01*
X0282118Y0081250D01*
X0282352Y0080531D01*
X0282695Y0079858D01*
X0283139Y0079247D01*
X0283673Y0078713D01*
X0284284Y0078269D01*
X0284957Y0077926D01*
X0285676Y0077692D01*
X0286422Y0077574D01*
X0286600Y0077574D01*
X0284086Y0078413D02*
X0277561Y0078413D01*
X0277561Y0080011D02*
X0282617Y0080011D01*
X0282061Y0081610D02*
X0277561Y0081610D01*
X0277561Y0083209D02*
X0282000Y0083209D01*
X0282000Y0084807D02*
X0277561Y0084807D01*
X0282000Y0085574D02*
X0286600Y0085574D01*
X0286600Y0093174D01*
X0286422Y0093174D01*
X0285676Y0093056D01*
X0284957Y0092822D01*
X0284284Y0092479D01*
X0283673Y0092035D01*
X0283139Y0091501D01*
X0282695Y0090890D01*
X0282352Y0090217D01*
X0282118Y0089498D01*
X0282000Y0088752D01*
X0282000Y0085574D01*
X0282000Y0086406D02*
X0277561Y0086406D01*
X0277561Y0088004D02*
X0282000Y0088004D01*
X0282152Y0089603D02*
X0277561Y0089603D01*
X0277561Y0091201D02*
X0282921Y0091201D01*
X0284913Y0092800D02*
X0277408Y0092800D01*
X0286600Y0092800D02*
X0287000Y0092800D01*
X0287000Y0091201D02*
X0286600Y0091201D01*
X0286600Y0089603D02*
X0287000Y0089603D01*
X0287000Y0088004D02*
X0286600Y0088004D01*
X0286600Y0086406D02*
X0287000Y0086406D01*
X0291600Y0086406D02*
X0292193Y0086406D01*
X0292193Y0088004D02*
X0291600Y0088004D01*
X0291448Y0089603D02*
X0292322Y0089603D01*
X0293112Y0091201D02*
X0290679Y0091201D01*
X0288687Y0092800D02*
X0295445Y0092800D01*
X0292193Y0084807D02*
X0291600Y0084807D01*
X0291600Y0083209D02*
X0292193Y0083209D01*
X0292193Y0081610D02*
X0291539Y0081610D01*
X0290983Y0080011D02*
X0292792Y0080011D01*
X0287000Y0080011D02*
X0286600Y0080011D01*
X0286600Y0081610D02*
X0287000Y0081610D01*
X0287000Y0083209D02*
X0286600Y0083209D01*
X0286600Y0084807D02*
X0287000Y0084807D01*
X0269346Y0068822D02*
X0236033Y0068822D01*
X0234435Y0067223D02*
X0269346Y0067223D01*
X0269346Y0065625D02*
X0266186Y0065625D01*
X0266783Y0065378D02*
X0265237Y0066018D01*
X0258363Y0066018D01*
X0256817Y0065378D01*
X0255633Y0064194D01*
X0254993Y0062648D01*
X0254993Y0060974D01*
X0255633Y0059428D01*
X0256817Y0058244D01*
X0258363Y0057604D01*
X0265237Y0057604D01*
X0266783Y0058244D01*
X0267967Y0059428D01*
X0268607Y0060974D01*
X0268607Y0062648D01*
X0267967Y0064194D01*
X0266783Y0065378D01*
X0268036Y0064026D02*
X0269346Y0064026D01*
X0269346Y0062428D02*
X0268607Y0062428D01*
X0268547Y0060829D02*
X0269346Y0060829D01*
X0269346Y0059231D02*
X0267770Y0059231D01*
X0269346Y0057632D02*
X0265305Y0057632D01*
X0258295Y0057632D02*
X0226907Y0057632D01*
X0226907Y0056034D02*
X0269346Y0056034D01*
X0269346Y0054435D02*
X0226907Y0054435D01*
X0226907Y0052837D02*
X0269346Y0052837D01*
X0269346Y0051238D02*
X0226907Y0051238D01*
X0226907Y0049640D02*
X0269346Y0049640D01*
X0269346Y0048041D02*
X0226907Y0048041D01*
X0226907Y0046443D02*
X0269346Y0046443D01*
X0269346Y0044844D02*
X0226907Y0044844D01*
X0226907Y0043246D02*
X0269346Y0043246D01*
X0269346Y0041647D02*
X0226907Y0041647D01*
X0226907Y0040049D02*
X0237676Y0040049D01*
X0236812Y0039691D02*
X0238836Y0040529D01*
X0241027Y0040529D01*
X0243051Y0039691D01*
X0244600Y0038142D01*
X0245439Y0036117D01*
X0245439Y0026127D01*
X0244600Y0024103D01*
X0243051Y0022553D01*
X0241027Y0021715D01*
X0238836Y0021715D01*
X0236812Y0022553D01*
X0235263Y0024103D01*
X0234424Y0026127D01*
X0234424Y0036117D01*
X0235263Y0038142D01*
X0236812Y0039691D01*
X0235571Y0038450D02*
X0226907Y0038450D01*
X0226506Y0036852D02*
X0234729Y0036852D01*
X0234424Y0035253D02*
X0225415Y0035253D01*
X0224324Y0033655D02*
X0234424Y0033655D01*
X0234424Y0032056D02*
X0223233Y0032056D01*
X0222142Y0030458D02*
X0234424Y0030458D01*
X0234424Y0028859D02*
X0221931Y0028859D01*
X0221931Y0027261D02*
X0234424Y0027261D01*
X0234617Y0025662D02*
X0221739Y0025662D01*
X0221054Y0024064D02*
X0235302Y0024064D01*
X0237025Y0022465D02*
X0219331Y0022465D01*
X0242838Y0022465D02*
X0256825Y0022465D01*
X0255102Y0024064D02*
X0244561Y0024064D01*
X0245246Y0025662D02*
X0254417Y0025662D01*
X0254224Y0027261D02*
X0245439Y0027261D01*
X0245439Y0028859D02*
X0254224Y0028859D01*
X0254224Y0030458D02*
X0245439Y0030458D01*
X0245439Y0032056D02*
X0254224Y0032056D01*
X0254224Y0033655D02*
X0245439Y0033655D01*
X0245439Y0035253D02*
X0254224Y0035253D01*
X0254529Y0036852D02*
X0245134Y0036852D01*
X0244292Y0038450D02*
X0255371Y0038450D01*
X0257476Y0040049D02*
X0242187Y0040049D01*
X0261987Y0040049D02*
X0269346Y0040049D01*
X0269346Y0038450D02*
X0264092Y0038450D01*
X0264934Y0036852D02*
X0268001Y0036852D01*
X0266402Y0035253D02*
X0265239Y0035253D01*
X0274822Y0032056D02*
X0283367Y0032056D01*
X0283226Y0032459D02*
X0282968Y0033587D01*
X0282864Y0034515D01*
X0292339Y0034515D01*
X0293939Y0034515D01*
X0293939Y0036115D01*
X0303414Y0036115D01*
X0303309Y0037043D01*
X0303052Y0038171D01*
X0302670Y0039263D01*
X0302168Y0040305D01*
X0301552Y0041285D01*
X0300831Y0042189D01*
X0300013Y0043007D01*
X0299108Y0043728D01*
X0298129Y0044344D01*
X0297086Y0044846D01*
X0295994Y0045228D01*
X0294867Y0045485D01*
X0293939Y0045590D01*
X0293939Y0036115D01*
X0292339Y0036115D01*
X0292339Y0045590D01*
X0291411Y0045485D01*
X0290283Y0045228D01*
X0289191Y0044846D01*
X0288148Y0044344D01*
X0287169Y0043728D01*
X0286264Y0043007D01*
X0285446Y0042189D01*
X0284725Y0041285D01*
X0284110Y0040305D01*
X0283608Y0039263D01*
X0283226Y0038171D01*
X0282968Y0037043D01*
X0282864Y0036115D01*
X0292339Y0036115D01*
X0292339Y0034515D01*
X0292339Y0025040D01*
X0291411Y0025144D01*
X0290283Y0025402D01*
X0289191Y0025784D01*
X0288148Y0026286D01*
X0287169Y0026901D01*
X0286264Y0027623D01*
X0285446Y0028441D01*
X0284725Y0029345D01*
X0284110Y0030325D01*
X0283608Y0031367D01*
X0283226Y0032459D01*
X0282960Y0033655D02*
X0276420Y0033655D01*
X0277384Y0035253D02*
X0292339Y0035253D01*
X0292339Y0033655D02*
X0293939Y0033655D01*
X0293939Y0034515D02*
X0293939Y0025040D01*
X0294867Y0025144D01*
X0295994Y0025402D01*
X0297086Y0025784D01*
X0298129Y0026286D01*
X0299108Y0026901D01*
X0300013Y0027623D01*
X0300831Y0028441D01*
X0301552Y0029345D01*
X0302168Y0030325D01*
X0302670Y0031367D01*
X0303052Y0032459D01*
X0303309Y0033587D01*
X0303414Y0034515D01*
X0293939Y0034515D01*
X0293939Y0035253D02*
X0325947Y0035253D01*
X0325701Y0034335D02*
X0325701Y0031413D01*
X0326457Y0028590D01*
X0327918Y0026059D01*
X0329985Y0023992D01*
X0332516Y0022531D01*
X0335339Y0021775D01*
X0338261Y0021775D01*
X0341084Y0022531D01*
X0343615Y0023992D01*
X0345682Y0026059D01*
X0347143Y0028590D01*
X0347899Y0031413D01*
X0347899Y0034335D01*
X0347143Y0037158D01*
X0345682Y0039689D01*
X0343615Y0041756D01*
X0341084Y0043217D01*
X0338261Y0043973D01*
X0335339Y0043973D01*
X0332516Y0043217D01*
X0329985Y0041756D01*
X0327918Y0039689D01*
X0326457Y0037158D01*
X0325701Y0034335D01*
X0325701Y0033655D02*
X0303317Y0033655D01*
X0302911Y0032056D02*
X0325701Y0032056D01*
X0325957Y0030458D02*
X0302232Y0030458D01*
X0301164Y0028859D02*
X0326385Y0028859D01*
X0327225Y0027261D02*
X0299559Y0027261D01*
X0296738Y0025662D02*
X0328315Y0025662D01*
X0329914Y0024064D02*
X0264361Y0024064D01*
X0265046Y0025662D02*
X0289539Y0025662D01*
X0292339Y0025662D02*
X0293939Y0025662D01*
X0293939Y0027261D02*
X0292339Y0027261D01*
X0292339Y0028859D02*
X0293939Y0028859D01*
X0293939Y0030458D02*
X0292339Y0030458D01*
X0292339Y0032056D02*
X0293939Y0032056D01*
X0284046Y0030458D02*
X0273223Y0030458D01*
X0271625Y0028859D02*
X0285113Y0028859D01*
X0286718Y0027261D02*
X0269490Y0027261D01*
X0262638Y0022465D02*
X0332763Y0022465D01*
X0340837Y0022465D02*
X0351921Y0022465D01*
X0351921Y0024064D02*
X0343686Y0024064D01*
X0345285Y0025662D02*
X0351921Y0025662D01*
X0351921Y0027261D02*
X0346375Y0027261D01*
X0347215Y0028859D02*
X0351921Y0028859D01*
X0351921Y0030458D02*
X0347643Y0030458D01*
X0347899Y0032056D02*
X0351921Y0032056D01*
X0351921Y0033655D02*
X0347899Y0033655D01*
X0347653Y0035253D02*
X0351921Y0035253D01*
X0351921Y0036852D02*
X0347225Y0036852D01*
X0346397Y0038450D02*
X0351921Y0038450D01*
X0351921Y0040049D02*
X0345322Y0040049D01*
X0343723Y0041647D02*
X0351921Y0041647D01*
X0351921Y0043246D02*
X0340976Y0043246D01*
X0343961Y0046443D02*
X0351921Y0046443D01*
X0351921Y0048041D02*
X0345559Y0048041D01*
X0347015Y0049640D02*
X0351921Y0049640D01*
X0351921Y0051238D02*
X0347015Y0051238D01*
X0347015Y0052837D02*
X0351921Y0052837D01*
X0351921Y0054435D02*
X0347015Y0054435D01*
X0345972Y0056034D02*
X0351921Y0056034D01*
X0351921Y0057632D02*
X0344374Y0057632D01*
X0324886Y0051238D02*
X0321094Y0051238D01*
X0320219Y0052837D02*
X0323878Y0052837D01*
X0323656Y0054435D02*
X0318900Y0054435D01*
X0316826Y0056034D02*
X0323656Y0056034D01*
X0312442Y0056034D02*
X0310843Y0056034D01*
X0310843Y0054435D02*
X0312442Y0054435D01*
X0312442Y0052837D02*
X0310843Y0052837D01*
X0310843Y0051238D02*
X0312442Y0051238D01*
X0312442Y0049640D02*
X0310843Y0049640D01*
X0310843Y0044844D02*
X0312442Y0044844D01*
X0312442Y0043246D02*
X0310843Y0043246D01*
X0310843Y0041647D02*
X0312442Y0041647D01*
X0312442Y0040049D02*
X0310843Y0040049D01*
X0310843Y0038450D02*
X0312442Y0038450D01*
X0317195Y0038450D02*
X0327203Y0038450D01*
X0328278Y0040049D02*
X0319132Y0040049D01*
X0320365Y0041647D02*
X0329877Y0041647D01*
X0332624Y0043246D02*
X0321197Y0043246D01*
X0321687Y0044844D02*
X0351921Y0044844D01*
X0326375Y0036852D02*
X0312449Y0036852D01*
X0312442Y0036852D02*
X0310843Y0036852D01*
X0310836Y0036852D02*
X0303331Y0036852D01*
X0302954Y0038450D02*
X0306090Y0038450D01*
X0304153Y0040049D02*
X0302291Y0040049D01*
X0302921Y0041647D02*
X0301263Y0041647D01*
X0302088Y0043246D02*
X0299714Y0043246D01*
X0301598Y0044844D02*
X0297090Y0044844D01*
X0293939Y0044844D02*
X0292339Y0044844D01*
X0292339Y0043246D02*
X0293939Y0043246D01*
X0293939Y0041647D02*
X0292339Y0041647D01*
X0292339Y0040049D02*
X0293939Y0040049D01*
X0293939Y0038450D02*
X0292339Y0038450D01*
X0292339Y0036852D02*
X0293939Y0036852D01*
X0283323Y0038450D02*
X0277561Y0038450D01*
X0277561Y0040049D02*
X0283986Y0040049D01*
X0285014Y0041647D02*
X0277561Y0041647D01*
X0277561Y0043246D02*
X0286564Y0043246D01*
X0289187Y0044844D02*
X0277561Y0044844D01*
X0277561Y0049640D02*
X0289028Y0049640D01*
X0286544Y0051238D02*
X0277561Y0051238D01*
X0277561Y0052837D02*
X0284990Y0052837D01*
X0284067Y0054435D02*
X0277561Y0054435D01*
X0277561Y0056034D02*
X0283453Y0056034D01*
X0283031Y0057632D02*
X0277561Y0057632D01*
X0277561Y0059231D02*
X0283031Y0059231D01*
X0283182Y0060829D02*
X0277561Y0060829D01*
X0277561Y0062428D02*
X0283610Y0062428D01*
X0284406Y0064026D02*
X0277561Y0064026D01*
X0277561Y0065625D02*
X0285533Y0065625D01*
X0287277Y0067223D02*
X0277561Y0067223D01*
X0257414Y0065625D02*
X0232836Y0065625D01*
X0231238Y0064026D02*
X0255564Y0064026D01*
X0254993Y0062428D02*
X0229639Y0062428D01*
X0228547Y0060829D02*
X0255053Y0060829D01*
X0255830Y0059231D02*
X0227770Y0059231D01*
X0277561Y0036852D02*
X0282947Y0036852D01*
X0161492Y0046443D02*
X0161320Y0046443D01*
X0161320Y0048041D02*
X0161492Y0048041D01*
X0158682Y0048041D02*
X0153928Y0048041D01*
X0155287Y0046443D02*
X0157332Y0046443D01*
X0114248Y0046443D02*
X0114076Y0046443D01*
X0114076Y0048041D02*
X0114248Y0048041D01*
X0111437Y0048041D02*
X0106969Y0048041D01*
X0108043Y0046443D02*
X0110087Y0046443D01*
X0090693Y0041647D02*
X0028723Y0041647D01*
X0030322Y0040049D02*
X0039244Y0040049D01*
X0039583Y0040388D02*
X0037886Y0038691D01*
X0036968Y0036474D01*
X0036968Y0034074D01*
X0037886Y0031857D01*
X0039583Y0030160D01*
X0041800Y0029242D01*
X0044200Y0029242D01*
X0045826Y0029916D01*
X0043293Y0027382D01*
X0043293Y0023566D01*
X0045992Y0020867D01*
X0049808Y0020867D01*
X0052507Y0023566D01*
X0052507Y0027382D01*
X0049808Y0030081D01*
X0046226Y0030081D01*
X0046417Y0030160D01*
X0048114Y0031857D01*
X0049032Y0034074D01*
X0049032Y0036474D01*
X0048114Y0038691D01*
X0046417Y0040388D01*
X0044200Y0041306D01*
X0041800Y0041306D01*
X0039583Y0040388D01*
X0037787Y0038450D02*
X0031397Y0038450D01*
X0032225Y0036852D02*
X0037124Y0036852D01*
X0036968Y0035253D02*
X0032653Y0035253D01*
X0032899Y0033655D02*
X0037142Y0033655D01*
X0037804Y0032056D02*
X0032899Y0032056D01*
X0032643Y0030458D02*
X0039286Y0030458D01*
X0043293Y0027261D02*
X0031375Y0027261D01*
X0032215Y0028859D02*
X0044770Y0028859D01*
X0046714Y0030458D02*
X0066886Y0030458D01*
X0062570Y0028859D02*
X0051030Y0028859D01*
X0052507Y0027261D02*
X0061093Y0027261D01*
X0061093Y0025662D02*
X0052507Y0025662D01*
X0052507Y0024064D02*
X0061093Y0024064D01*
X0062194Y0022465D02*
X0051406Y0022465D01*
X0044394Y0022465D02*
X0025837Y0022465D01*
X0028686Y0024064D02*
X0043293Y0024064D01*
X0043293Y0025662D02*
X0030285Y0025662D01*
X0048196Y0032056D02*
X0065404Y0032056D01*
X0064742Y0033655D02*
X0048858Y0033655D01*
X0049032Y0035253D02*
X0064568Y0035253D01*
X0064724Y0036852D02*
X0048876Y0036852D01*
X0048213Y0038450D02*
X0065387Y0038450D01*
X0066844Y0040049D02*
X0046756Y0040049D01*
X0025976Y0043246D02*
X0089888Y0043246D01*
X0331832Y0092800D02*
X0336126Y0092800D01*
D24*
X0104162Y0055512D02*
X0104162Y0044370D01*
X0104162Y0055512D02*
X0096800Y0062874D01*
D25*
X0259731Y0031122D02*
X0268080Y0031122D01*
X0273454Y0036496D01*
X0273454Y0091614D01*
D26*
X0273454Y0091614D03*
D27*
X0232863Y0072874D02*
X0221800Y0061811D01*
X0221800Y0039016D01*
X0216424Y0031140D01*
X0216424Y0031122D01*
D28*
X0261643Y0075866D03*
D29*
X0235855Y0075866D01*
X0232863Y0072874D01*
D30*
X0271800Y0107874D02*
X0281800Y0097874D01*
X0301800Y0097874D01*
X0306800Y0092874D01*
X0306800Y0085374D01*
X0271800Y0107874D02*
X0186800Y0107874D01*
X0141800Y0115374D02*
X0269300Y0115374D01*
X0276800Y0122874D01*
X0304300Y0122874D01*
X0306800Y0120374D01*
X0306800Y0112874D01*
X0141800Y0115374D02*
X0134300Y0107874D01*
X0116800Y0107874D01*
M02*
