G75*
%MOIN*%
%OFA0B0*%
%FSLAX25Y25*%
%IPPOS*%
%LPD*%
%AMOC8*
5,1,8,0,0,1.08239X$1,22.5*
%
%ADD10C,0.13398*%
%ADD11C,0.07800*%
%ADD12R,0.05950X0.05950*%
%ADD13C,0.05950*%
%ADD14C,0.06000*%
%ADD15C,0.06800*%
%ADD16OC8,0.06000*%
%ADD17C,0.10800*%
%ADD18OC8,0.10800*%
%ADD19OC8,0.06800*%
%ADD20C,0.09650*%
%ADD21C,0.08600*%
%ADD22OC8,0.10850*%
%ADD23C,0.17800*%
%ADD24C,0.06343*%
%ADD25C,0.05550*%
D10*
X0021800Y0032874D03*
X0021800Y0112874D03*
X0336800Y0112874D03*
X0336800Y0032874D03*
D11*
X0261643Y0075866D03*
X0206800Y0062874D03*
X0046800Y0062874D03*
X0046800Y0122874D03*
X0206800Y0122874D03*
D12*
X0056800Y0062874D03*
D13*
X0066800Y0062874D03*
X0076800Y0062874D03*
X0086800Y0062874D03*
X0096800Y0062874D03*
X0106800Y0062874D03*
X0116800Y0062874D03*
X0126800Y0062874D03*
X0136800Y0062874D03*
X0146800Y0062874D03*
X0156800Y0062874D03*
X0166800Y0062874D03*
X0176800Y0062874D03*
X0186800Y0062874D03*
X0196800Y0062874D03*
X0196800Y0122874D03*
X0186800Y0122874D03*
X0176800Y0122874D03*
X0166800Y0122874D03*
X0156800Y0122874D03*
X0146800Y0122874D03*
X0136800Y0122874D03*
X0126800Y0122874D03*
X0116800Y0122874D03*
X0106800Y0122874D03*
X0096800Y0122874D03*
X0086800Y0122874D03*
X0076800Y0122874D03*
X0066800Y0122874D03*
X0056800Y0122874D03*
D14*
X0144200Y0077874D02*
X0149400Y0077874D01*
X0184200Y0077874D02*
X0189400Y0077874D01*
X0219200Y0061811D02*
X0224400Y0061811D01*
X0259200Y0061811D02*
X0264400Y0061811D01*
X0327863Y0059411D02*
X0327863Y0054211D01*
X0327863Y0094211D02*
X0327863Y0099411D01*
D15*
X0306800Y0109874D02*
X0306800Y0115874D01*
X0296800Y0115874D02*
X0296800Y0109874D01*
X0286800Y0109874D02*
X0286800Y0115874D01*
X0286800Y0088374D02*
X0286800Y0082374D01*
X0296800Y0082374D02*
X0296800Y0088374D01*
X0306800Y0088374D02*
X0306800Y0082374D01*
D16*
X0186800Y0092874D03*
X0186800Y0107874D03*
X0146800Y0107874D03*
X0116800Y0107874D03*
X0116800Y0092874D03*
X0146800Y0092874D03*
X0116363Y0078748D03*
X0076363Y0078748D03*
X0076800Y0092874D03*
X0076800Y0107874D03*
D17*
X0256800Y0097874D03*
D18*
X0236800Y0097874D03*
D19*
X0047900Y0025474D03*
X0065700Y0025474D03*
D20*
X0070600Y0035274D03*
X0043000Y0035274D03*
D21*
X0196624Y0035022D02*
X0196624Y0027222D01*
X0216424Y0027222D02*
X0216424Y0035022D01*
X0239931Y0035022D02*
X0239931Y0027222D01*
X0259731Y0027222D02*
X0259731Y0035022D01*
D22*
X0340383Y0052244D03*
X0340383Y0064055D03*
X0340383Y0075866D03*
X0340383Y0087677D03*
D23*
X0293139Y0058937D03*
X0311643Y0047126D03*
X0293139Y0035315D03*
D24*
X0161406Y0044370D03*
X0151406Y0044370D03*
X0141406Y0044370D03*
X0114162Y0044370D03*
X0104162Y0044370D03*
X0094162Y0044370D03*
D25*
X0273454Y0091614D03*
M02*
