%
M48
M72
T01C0.03150
T02C0.03200
T03C0.03543
T04C0.04000
T05C0.05200
T06C0.05900
T07C0.06700
T08C0.07000
T09C0.11800
T10C0.12598
%
T01
X56800Y62874
X66800Y62874
X76800Y62874
X86800Y62874
X96800Y62874
X106800Y62874
X116800Y62874
X126800Y62874
X136800Y62874
X146800Y62874
X156800Y62874
X166800Y62874
X176800Y62874
X186800Y62874
X196800Y62874
X261643Y75866
X273454Y91614
X196800Y122874
X186800Y122874
X176800Y122874
X166800Y122874
X156800Y122874
X146800Y122874
X136800Y122874
X126800Y122874
X116800Y122874
X106800Y122874
X96800Y122874
X86800Y122874
X76800Y122874
X66800Y122874
X56800Y122874
T02
X76800Y107874
X76800Y92874
X76363Y78748
X116363Y78748
X146800Y77874
X146800Y92874
X116800Y92874
X116800Y107874
X146800Y107874
X186800Y107874
X186800Y92874
X186800Y77874
X221800Y61811
X261800Y61811
X327863Y56811
X327863Y96811
T03
X161406Y44370
X151406Y44370
X141406Y44370
X114162Y44370
X104162Y44370
X94162Y44370
T04
X47900Y25474
X65700Y25474
X236800Y97874
X256800Y97874
X286800Y85374
X296800Y85374
X306800Y85374
X306800Y112874
X296800Y112874
X286800Y112874
T05
X259731Y31122
X239931Y31122
X216424Y31122
X196624Y31122
T06
X70600Y35274
X43000Y35274
T07
X340383Y52244
X340383Y64055
X340383Y75866
X340383Y87677
T08
X206800Y62874
X46800Y62874
X46800Y122874
X206800Y122874
T09
X293139Y58937
X311643Y47126
X293139Y35315
T10
X336800Y32874
X336800Y112874
X21800Y112874
X21800Y32874
M30
